<svg id="Layer_1" data-name="Layer 1" xmlns="http://www.w3.org/2000/svg" viewBox="0 0 500 500"><defs><style>.cls-1{fill:#3d3d3d;}.cls-2{fill:#515151;}.cls-3{fill:#f9b418;}.cls-4{fill:#b5b5b5;}.cls-5{fill:#1fab96;}.cls-6{fill:#4cc0b0;}.cls-7{fill:#f1f0f0;}.cls-8{fill:#cfa32b;}.cls-9{fill:#e5bc36;}.cls-10{fill:#ffd356;}.cls-11{fill:#213b75;}</style></defs><path class="cls-1" d="M73.28,68.05a4.83,4.83,0,0,0-6.73-3.27c.74,1,1.74,2,2,3.33a33.31,33.31,0,0,1,.07,5.65h4.75C73.29,71.86,73.4,70,73.28,68.05Z"/><path class="cls-1" d="M73.33,78.45c-1.57,0-3.15,0-4.72,0,.08,17.74,0,35.48,0,53.22.13,2.4-1.27,4.45-2.41,6.43A53.54,53.54,0,0,0,68.66,143c1.48-2.84,2.86-5.71,4.32-8.56a5.48,5.48,0,0,0,.36-2.76C73.31,113.91,73.34,96.18,73.33,78.45Z"/><path class="cls-2" d="M66.55,64.78A5.2,5.2,0,0,0,64,69c0,3.62-.28,7.25,0,10.88q0,26.12,0,52.24c-.17,2.26,1.57,4,2.3,6,1.14-2,2.54-4,2.41-6.43-.07-17.74,0-35.48,0-53.22H64c0-1.56,0-3.12,0-4.69h4.61a33.31,33.31,0,0,0-.07-5.65C68.29,66.79,67.29,65.82,66.55,64.78Z"/><path class="cls-3" d="M129.49,73.77c-1,2-1.93,4.11-2.9,6.16-2.15.32-4.31.63-6.46,1,1.56,1.61,3.13,3.2,4.68,4.82-.38,2.24-.74,4.49-1.1,6.74,1.92-1.07,3.83-2.15,5.77-3.19,1.93,1.06,3.85,2.15,5.79,3.19-.37-2.26-.73-4.5-1.11-6.75,1.54-1.63,3.12-3.21,4.68-4.82-2.16-.29-4.3-.66-6.45-1C131.41,77.88,130.46,75.82,129.49,73.77Z"/><path class="cls-3" d="M160.45,79.92c-.95-2-1.92-4.11-2.89-6.15-1,2-1.92,4.11-2.89,6.16-2.16.33-4.31.62-6.46,1,1.55,1.58,3.06,3.19,4.66,4.73-.31,2.28-.74,4.55-1.08,6.83,1.91-1.08,3.84-2.13,5.76-3.19,1.93,1.06,3.86,2.14,5.8,3.19-.33-2.22-.77-4.42-1.06-6.65,1.35-1.78,3.13-3.25,4.63-4.93C164.76,80.62,162.61,80.26,160.45,79.92Z"/><path class="cls-3" d="M101.41,73.76c-1,2.06-1.93,4.12-2.9,6.17-2.16.33-4.31.62-6.46,1,1.56,1.59,3.1,3.2,4.67,4.78-.35,2.26-.73,4.52-1.09,6.78,1.91-1.08,3.84-2.13,5.76-3.19,1.93,1.06,3.86,2.14,5.8,3.19-.36-2.27-.75-4.53-1.09-6.8,1.57-1.58,3.11-3.18,4.67-4.77-2.17-.29-4.32-.65-6.47-1C103.34,77.87,102.37,75.82,101.41,73.76Z"/><path class="cls-4" d="M73.33,73.76H64c0,1.57,0,3.13,0,4.69h4.63c1.57,0,3.15,0,4.72,0Z"/><path class="cls-5" d="M166.93,101.61a4.6,4.6,0,0,0-4.4-4.49c-2.67-.14-5.35,0-8-.05,1.55,1.24,3.21,2.79,3,5q0,34.82,0,69.64a5.14,5.14,0,0,1-3.78,5.09c2.79.14,5.6.08,8.4.05a4.72,4.72,0,0,0,4.75-4.67Q166.91,136.88,166.93,101.61Z"/><path class="cls-6" d="M157.55,102.05q0,34.82,0,69.64a5.14,5.14,0,0,1-3.78,5.09c-9.66-.09-19.32,0-29,0q0,9.34,0,18.7-11.49-9.16-23-18.37c-.52-.52-1.32-.28-2-.34q-20.2,0-40.42,0a4.77,4.77,0,0,1-4.84-5q0-34.86,0-69.73a4.79,4.79,0,0,1,4.66-4.88q0,17.7,0,35.41a5.43,5.43,0,0,0,.36,2.8c3,6,6,12,9,18q4.55-9.07,9.09-18.16a6.06,6.06,0,0,0,.28-2.65q0-17.67,0-35.35h70.18c2.1,0,4.21,0,6.32-.09C156.06,98.31,157.72,99.86,157.55,102.05Zm-42.1,9.16c0,1.56,0,3.12,0,4.67q18.72,0,37.44,0v-4.67Zm-32.75,14c0,1.56,0,3.12,0,4.68q35.1,0,70.2,0v-4.68Zm70.17,14H82.69c0,1.56,0,3.11,0,4.67h70.2C152.9,142.4,152.9,140.84,152.87,139.28Zm-46.8,14.07c0,1.55,0,3.1,0,4.65h46.81v-4.67C137.28,153.34,121.68,153.29,106.07,153.35Z"/><path class="cls-7" d="M152.89,111.21H115.45c0,1.56,0,3.12,0,4.67q18.72,0,37.44,0Z"/><path class="cls-7" d="M152.89,125.24H82.7c0,1.56,0,3.12,0,4.68q35.1,0,70.2,0Z"/><path class="cls-7" d="M152.89,144c0-1.56,0-3.12,0-4.68H82.69c0,1.56,0,3.11,0,4.67Z"/><path class="cls-7" d="M152.89,153.33c-15.61,0-31.21,0-46.82,0,0,1.55,0,3.1,0,4.65h46.81Z"/><path class="cls-1" d="M436.8,32.59c.76-4.13,5.77-6.48,9.5-4.62-1.05,1.47-2.45,2.85-2.77,4.7a46.34,46.34,0,0,0-.09,8h-6.71C436.78,38,436.63,35.27,436.8,32.59Z"/><path class="cls-1" d="M436.73,47.28c2.22,0,4.45,0,6.67,0-.11,25,0,50.09-.07,75.14-.19,3.39,1.78,6.28,3.4,9.09-1,2.34-2.18,4.62-3.41,6.86-2.08-4-4-8.07-6.09-12.09-.72-1.17-.46-2.59-.51-3.9Q436.77,84.83,436.73,47.28Z"/><path class="cls-2" d="M446.3,28c1.95,1.36,3.67,3.39,3.62,5.91,0,5.12.39,10.24,0,15.36q0,36.89,0,73.77c.25,3.18-2.22,5.65-3.24,8.49-1.62-2.81-3.59-5.7-3.4-9.09.09-25,0-50.09.07-75.14h6.54c0-2.21,0-4.42,0-6.62h-6.51a46.34,46.34,0,0,1,.09-8C443.85,30.82,445.25,29.44,446.3,28Z"/><path class="cls-3" d="M357.44,40.66c1.38,2.9,2.73,5.81,4.1,8.7,3,.46,6.08.89,9.11,1.4-2.2,2.27-4.42,4.52-6.6,6.8.53,3.17,1,6.35,1.56,9.52-2.72-1.5-5.42-3-8.16-4.5-2.72,1.5-5.43,3-8.17,4.49.52-3.17,1-6.34,1.56-9.52-2.17-2.29-4.4-4.53-6.6-6.8,3-.41,6.07-.93,9.11-1.39C354.73,46.47,356.07,43.56,357.44,40.66Z"/><path class="cls-3" d="M313.72,49.35q2-4.35,4.09-8.69c1.35,2.9,2.71,5.81,4.08,8.7,3.05.47,6.09.88,9.12,1.4-2.19,2.23-4.32,4.51-6.57,6.68.42,3.22,1,6.43,1.52,9.65-2.7-1.53-5.42-3-8.13-4.51-2.73,1.5-5.45,3-8.19,4.5.46-3.13,1.09-6.24,1.49-9.38-1.9-2.52-4.41-4.6-6.54-7C307.64,50.33,310.68,49.83,313.72,49.35Z"/><path class="cls-3" d="M397.09,40.66c1.37,2.9,2.72,5.81,4.09,8.7,3.05.47,6.09.88,9.12,1.4-2.2,2.25-4.38,4.52-6.6,6.74.5,3.2,1,6.39,1.55,9.59-2.7-1.53-5.42-3-8.13-4.51-2.74,1.5-5.45,3-8.19,4.5.51-3.2,1.06-6.39,1.54-9.6-2.22-2.22-4.4-4.49-6.6-6.74,3.06-.41,6.1-.91,9.14-1.39Z"/><path class="cls-4" d="M436.73,40.66H450c0,2.2,0,4.41,0,6.62H443.4c-2.22,0-4.45,0-6.67,0Z"/><path class="cls-5" d="M304.58,80a6.48,6.48,0,0,1,6.21-6.33c3.77-.2,7.55,0,11.32-.08-2.18,1.76-4.53,3.94-4.29,7q-.06,49.16,0,98.33c-.27,3.4,2.26,6.17,5.34,7.18-3.95.2-7.91.11-11.86.08-3.49,0-6.92-3-6.71-6.61Q304.59,129.79,304.58,80Z"/><path class="cls-6" d="M322.11,73.56c3,.18,6,.12,8.94.12h99.07q0,25,0,49.91c.07,1.24-.22,2.59.4,3.73q6.44,12.83,12.83,25.65,6.36-12.69,12.71-25.39c.74-1.2.47-2.63.52-4q0-25,0-50a6.76,6.76,0,0,1,6.59,6.89q0,49.21,0,98.44a6.74,6.74,0,0,1-6.83,7.05q-28.53,0-57.07,0c-.92.09-2-.26-2.78.48q-16.2,13-32.42,25.94,0-13.22,0-26.4c-13.63,0-27.27-.08-40.9,0-3.08-1-5.61-3.78-5.34-7.18q0-49.17,0-98.33C317.58,77.5,319.93,75.32,322.11,73.56Zm2.29,20q0,3.28,0,6.59h52.85q0-3.3,0-6.6Q350.83,93.52,324.4,93.53Zm0,19.81q0,3.3,0,6.6,49.56,0,99.11,0,0-3.3,0-6.61Zm0,26.42q49.54,0,99.1,0c0-2.2,0-4.39,0-6.59q-49.54,0-99.08,0C324.39,135.36,324.39,137.56,324.41,139.76Zm0,13.23q0,3.28,0,6.59,33,0,66.09,0c0-2.19,0-4.37,0-6.55C368.47,152.93,346.44,153,324.41,153Z"/><path class="cls-7" d="M324.4,93.53q26.43,0,52.86,0,0,3.3,0,6.6H324.41Q324.4,96.82,324.4,93.53Z"/><path class="cls-7" d="M324.41,113.34h99.1q0,3.32,0,6.61-49.54,0-99.11,0Q324.4,116.64,324.41,113.34Z"/><path class="cls-7" d="M324.41,139.76c0-2.2,0-4.4,0-6.6q49.54,0,99.08,0c0,2.2,0,4.39,0,6.59Q374,139.78,324.41,139.76Z"/><path class="cls-7" d="M324.41,153c22,0,44.06-.06,66.09,0,0,2.18,0,4.36,0,6.55q-33,0-66.09,0Q324.4,156.28,324.41,153Z"/><path class="cls-8" d="M136,213.14c-.59-6,5-11.35,10.92-10.83q96.35,0,192.69,0a10.17,10.17,0,0,1,9.92,11.72c-.63,5-5.36,8.59-10.3,8.61q20.13,0,40.23,0a10.41,10.41,0,0,1,9.5,5c1.92,3.1,1.36,6.9,1.45,10.37-.23,14.24,1.19,28.87-3.39,42.62-7.87,26.46-31.19,47.51-58.36,52.48a92.91,92.91,0,0,0,8.48-23.46,39,39,0,0,1,5.81-3.53,56,56,0,0,0,25.64-35.33c2.18-9.12,1.26-18.55,1.45-27.83H339.55c-.24-6.76.62-13.58-.49-20.3q-89.83,0-179.66,0c-4.36,0-8.73-.28-13.05.35-.43,6.65-.08,13.31-.18,19.95H115.64c.19,9.41-.77,19,1.53,28.24a55.88,55.88,0,0,0,25.58,34.91c1.93,1.16,4.07,2,5.77,3.52A94.1,94.1,0,0,0,157,333.16,76.31,76.31,0,0,1,95.3,259.34c0-8.86-.06-17.72,0-26.58a10.2,10.2,0,0,1,10.08-10.06q20.51-.1,41,0C141.16,222.66,136.24,218.52,136,213.14Z"/><path class="cls-8" d="M218.58,382.37a95.55,95.55,0,0,0,48.55,0c4.24,16.55,11.63,33.46,25.94,43.69-30.05.4-60.11,0-90.15.21-3.39.06-6.77-.24-10.16-.24C207,415.74,214.34,398.88,218.58,382.37Z"/><path class="cls-9" d="M146.35,223.06c4.32-.63,8.69-.36,13.05-.35q89.83,0,179.66,0c1.11,6.72.25,13.54.49,20.3v43.9a94,94,0,0,1-2.37,22.8,92.91,92.91,0,0,1-8.48,23.46,96.63,96.63,0,0,1-171.72,0,98.66,98.66,0,0,1-10.81-46.35q0-21.88,0-43.8C146.27,236.37,145.92,229.71,146.35,223.06Zm88.35,29.83c-3.86,7-6.92,14.35-10.85,21.25-8.32,2.4-17.26,2.28-25.69,4.37-6.16,1.85-8.17,10.53-3.66,15q7.69,7.38,15.36,14.8c.83,1,2.25,1.9,1.85,3.39-1,7.74-2.92,15.34-3.79,23.1a9.26,9.26,0,0,0,8.28,9.87c4.18.5,7.65-2.31,11.23-4,5.21-2.53,10.19-5.52,15.46-7.93,7.6,3.57,14.8,8,22.45,11.41,6,2.5,13.27-2.9,12.47-9.39-.88-7.75-2.75-15.36-3.81-23.08-.42-1.49,1-2.43,1.86-3.36,4.78-4.42,9.28-9.11,14.1-13.46a10.31,10.31,0,0,0,3.66-9,9.38,9.38,0,0,0-8.2-8c-6.76-1.08-13.56-2-20.35-2.89-1.47-.27-3.4-.37-3.92-2.08-3.07-6.12-6-12.28-9.14-18.37-1.14-2.22-2.64-4.44-5-5.52A9.42,9.42,0,0,0,234.7,252.89Z"/><path class="cls-9" d="M180,429c3.37-3.46,8.46-2.56,12.8-3,3.39,0,6.77.3,10.16.24,30-.2,60.1.19,90.15-.21,4.31.31,9.35-.49,12.71,2.92,4.89,4.52,2.79,11.74,3.24,17.61H176.71C177.16,440.72,175,433.46,180,429Z"/><path class="cls-10" d="M234.7,252.89a9.42,9.42,0,0,1,12.32-3.8c2.35,1.08,3.85,3.3,5,5.52,3.11,6.09,6.07,12.25,9.14,18.37.52,1.71,2.45,1.81,3.92,2.08,6.79.93,13.59,1.81,20.35,2.89a9.38,9.38,0,0,1,8.2,8,10.31,10.31,0,0,1-3.66,9c-4.82,4.35-9.32,9-14.1,13.46-.85.93-2.28,1.87-1.86,3.36,1.06,7.72,2.93,15.33,3.81,23.08.8,6.49-6.47,11.89-12.47,9.39-7.65-3.46-14.85-7.84-22.45-11.41-5.27,2.41-10.25,5.4-15.46,7.93-3.58,1.68-7.05,4.49-11.23,4a9.26,9.26,0,0,1-8.28-9.87c.87-7.76,2.81-15.36,3.79-23.1.4-1.49-1-2.44-1.85-3.39q-7.67-7.41-15.36-14.8c-4.51-4.5-2.5-13.18,3.66-15,8.43-2.09,17.37-2,25.69-4.37C227.78,267.24,230.84,259.85,234.7,252.89Z"/><path class="cls-11" d="M161.49,460.85a15.29,15.29,0,0,1,15.22-14.27H309a15.32,15.32,0,0,1,14.29,9.91c1.21,3.06,1,6.4,1,9.62-.05,7.09.06,14.19,0,21.28a10.16,10.16,0,0,1-5.25,8.79c-2.63,1.51-5.77,1.27-8.68,1.3-46.15-.05-92.29,0-138.43,0a10.21,10.21,0,0,1-10.42-10C161.43,478.56,161.38,469.7,161.49,460.85Z"/></svg>