<svg id="Layer_1" data-name="Layer 1" xmlns="http://www.w3.org/2000/svg" viewBox="0 0 500 500"><defs><style>.cls-1{fill:#f9a01f;}.cls-2{fill:#fed20d;}.cls-3{fill:#68cef6;}.cls-4{fill:#30a9e0;}.cls-5{fill:#b5e2ec;}</style></defs><path class="cls-1" d="M172.88,23.39c5-8,13-14.34,22.5-15.87,9.79-2,20,1.29,27.56,7.56-6.16,4.26-11.67,9.7-15.08,16.43-2.29,3.63-3.81,9.7-9.39,8-4.16-2.95-6.86-7.48-11-10.46C183.22,25.91,178,24.31,172.88,23.39Z"/><path class="cls-1" d="M276.71,15.09c7.57-6.29,17.76-9.55,27.55-7.57,9.45,1.55,17.51,7.86,22.51,15.87-5.83,1.06-11.72,3-16.22,7-3.4,2.74-5.57,6.89-9.4,9.06-5.46,1.84-7.06-4.23-9.31-7.8C288.41,24.85,282.91,19.36,276.71,15.09Z"/><path class="cls-1" d="M217.55,99.57c1.76-1,3.48-2.14,5.21-3.22,7.14,3.42,14.46,7,22.49,7.51,11.11,1.39,21.94-2.36,31.61-7.51,1.73,1.08,3.46,2.18,5.23,3.22q.29,18.44,0,36.87-32.26-.15-64.51,0C217.35,124.15,217.38,111.86,217.55,99.57Z"/><path class="cls-1" d="M104.05,131c2.83-1.5,5.54-3.43,8.69-4.18,3.94,0,5.28,5.49,2.08,7.57-12,12.13-24.1,24.12-36.14,36.18C85,177,91.56,183.21,97.74,189.76c2.39,2.18.86,5.93-1.9,6.93-24,13.34-48,26.88-72.16,39.94-3.94,2.72-8.28-3.87-4.38-6.54,12.05-12.29,24.34-24.35,36.48-36.57-6.34-6.65-13.15-12.84-19.36-19.62-2-2-.54-5.36,1.86-6.27C60.19,155.42,82.18,143.31,104.05,131Z"/><path class="cls-1" d="M384.47,133.26c-3.07-3.07,1.79-8.45,5.23-5.71,22.45,12.17,44.67,24.81,67.06,37.1,3.08,2.08,9.12,3.51,7.72,8.39-6.19,7.26-13.42,13.57-20,20.45Q462.23,211.24,480,229c2,1.62,3.66,4.77,1.33,6.92-1.63,2.25-4.61,1-6.48-.13Q439.47,216.06,404,196.43c-2.47-.92-3.83-4.46-1.72-6.4,6.2-6.67,12.89-12.88,19.23-19.43C409.28,158.07,396.59,145.93,384.47,133.26Z"/><path class="cls-1" d="M125.12,218.42c4.5-2.7,11.1.38,11.73,5.62a123.25,123.25,0,0,1-.17,20.06c-1.37,5.34-8.7,7.56-12.83,3.87-4.4-3.59-2.6-9.82-3-14.72C121,228.19,119.61,221.25,125.12,218.42Z"/><path class="cls-1" d="M367.59,218.33c4.52-2.55,11,.6,11.55,5.8a170.38,170.38,0,0,1,.07,18.36,8,8,0,0,1-7.32,7.3c-4.29.44-8.6-3.15-8.63-7.53-.24-5.51-.18-11,0-16.57A7.93,7.93,0,0,1,367.59,218.33Z"/><path class="cls-1" d="M94.88,250.06a146.9,146.9,0,0,1,19.57,0c5.53.82,8.38,8.17,4.91,12.55-3.17,4.65-9.39,3.13-14.15,3.4-4.93-.4-11.19,1.45-14.84-2.93C86.46,258.8,89.11,250.94,94.88,250.06Z"/><path class="cls-1" d="M141.88,250.53c6.75-1.4,13.83-.63,20.69-.53,5.83.44,9,8.24,5.28,12.73-3.33,4.62-9.6,3-14.43,3.28-4.64-.37-10.24,1.24-13.95-2.36C135.45,259.94,136.79,252.55,141.88,250.53Z"/><path class="cls-1" d="M334.84,250.89c6-2.12,12.69-.72,19-1,4-.43,8.1,2,9.06,6,1.49,4.79-2.56,10.24-7.59,10.09-6.2.05-12.48.44-18.67-.27C329.89,264.13,328.76,254,334.84,250.89Z"/><path class="cls-1" d="M384.31,250.45c6.28-1.28,12.83-.49,19.21-.55,4.76-.32,8.87,4.35,8.14,9a8,8,0,0,1-8.15,7c-6.22,0-12.52.54-18.68-.37C377.92,263.63,377.6,252.86,384.31,250.45Z"/><path class="cls-1" d="M125.21,267c4.4-2.55,10.69.3,11.6,5.31a162.42,162.42,0,0,1,.16,18.33,7.9,7.9,0,0,1-6.17,7.58c-4.34,1.16-9.31-2.11-9.73-6.63-.38-5.86-.23-11.75-.11-17.61A7.92,7.92,0,0,1,125.21,267Z"/><path class="cls-1" d="M366.77,267.35c4.87-3.58,12.63.35,12.47,6.4.09,6.33.53,12.73-.31,19-1.51,5.76-9.79,7.56-13.62,3-3.22-3.5-1.86-8.6-2.18-12.88C363.52,277.7,361.56,270.82,366.77,267.35Z"/><path class="cls-1" d="M264.93,346.6c13.56.14,27.14-.16,40.7.09,6.5,0,12.27,4.27,15,10q23.48,43.56,46.93,87.11c2.46,4.7,5.48,9.25,6.54,14.52a16.86,16.86,0,0,1-9.94,17.11c-4.26,1.72-8.95,1.49-13.45,1.54-21.45-.21-42.9.18-64.34-.21,3-7.53,5-15.79,3-23.87-8-35.31-16.35-70.55-24.36-105.85ZM309,412.86c-7.48,2.77-12.15,11.63-9.79,19.32a16.17,16.17,0,0,0,17,11.79c8.76-.48,15.83-9.21,14.58-17.89C330,416,318.37,408.85,309,412.86Z"/><path class="cls-1" d="M239.73,363.37c8.75-1.48,17.68,5.63,18.24,14.47,1.07,9-6.67,17.74-15.72,17.62-8.21.42-15.77-6.38-16.39-14.53C224.87,372.6,231.37,364.27,239.73,363.37Z"/><path class="cls-1" d="M201.88,413c13.56-4.95,29.77,4.81,31.62,19.12,2.6,13.3-8,26.93-21.42,28.07-13,1.75-25.84-8.92-26.7-21.91C184.14,427.3,191.52,416.35,201.88,413Z"/><path class="cls-2" d="M222.94,15.08c15.78-10.77,38-10.76,53.77,0,6.2,4.27,11.7,9.76,15.13,16.54,2.25,3.57,3.85,9.64,9.31,7.8,3.83-2.17,6-6.32,9.4-9.06,4.5-4,10.39-5.92,16.22-7a32.41,32.41,0,0,1,35.65,39C359.7,75.74,347.66,86.65,334,87.66c-2.43.39-5.12-.32-7.41.53C322.78,93,318.76,98,313,100.57c-9.6,4.89-21.75,4.72-31-1-1.77-1-3.5-2.14-5.23-3.22-9.67,5.15-20.5,8.9-31.61,7.51-8-.49-15.35-4.09-22.49-7.51-1.73,1.08-3.45,2.18-5.21,3.22-14.91,9.52-36,3.21-44.67-11.85-10.23,1.1-20.92-2.56-27.82-10.3a32.37,32.37,0,0,1,27.82-54c5.16.92,10.34,2.52,14.59,5.7,4.14,3,6.84,7.51,11,10.46,5.58,1.66,7.1-4.41,9.39-8C211.27,24.78,216.78,19.34,222.94,15.08Z"/><path class="cls-2" d="M96.8,24.93c8.45-4.63,20.09.3,22.7,9.55,3.12,8.88-3.25,19.4-12.55,20.75-8,1.64-16.53-3.85-18.45-11.75A16.21,16.21,0,0,1,96.8,24.93Z"/><path class="cls-2" d="M388.93,24.6c8.95-4.37,20.71,1.64,22.41,11.43,2.12,8.84-4.64,18.4-13.69,19.31-9.46,1.58-18.81-6.87-18.25-16.44A16.18,16.18,0,0,1,388.93,24.6Z"/><path class="cls-2" d="M129.88,89.36C138.82,85,150.6,91,152.29,100.81c2.12,8.82-4.64,18.37-13.66,19.29-9.42,1.58-18.74-6.76-18.29-16.27A16.21,16.21,0,0,1,129.88,89.36Z"/><path class="cls-2" d="M356,89.63c8.46-4.55,20,.44,22.6,9.69,3,8.84-3.27,19.26-12.5,20.66-8,1.7-16.63-3.83-18.54-11.76A16.22,16.22,0,0,1,356,89.63Z"/><path class="cls-2" d="M148.94,447.18c18.09-33.33,36-66.79,54-100.15,20.7,0,41.39,0,62.09,0,8,35.3,16.31,70.54,24.36,105.85,2,8.08,0,16.34-3,23.87l-.64,0c-47.63-.55-95.3,0-143-.28a16.32,16.32,0,0,1-16.55-14.24c-.93-7.39,4.4-13.36,7-19.82.22,3.29.91,7.11,4.23,8.71C141.59,453.66,147,451.41,148.94,447.18Zm90.79-83.81c-8.36.9-14.86,9.23-13.87,17.56.62,8.15,8.18,14.95,16.39,14.53,9.05.12,16.79-8.66,15.72-17.62C257.41,369,248.48,361.89,239.73,363.37ZM201.88,413c-10.36,3.39-17.74,14.34-16.5,25.28.86,13,13.73,23.66,26.7,21.91,13.39-1.14,24-14.77,21.42-28.07C231.65,417.77,215.44,408,201.88,413Z"/><path class="cls-2" d="M309,412.86c9.39-4,21,3.09,21.83,13.22,1.25,8.68-5.82,17.41-14.58,17.89a16.17,16.17,0,0,1-17-11.79C296.83,424.49,301.5,415.63,309,412.86Z"/><path class="cls-3" d="M188.37,143.22c6.63-9.55,19.39-6.15,29.21-6.78q32.23-.13,64.51,0c9.8.71,22.42-2.82,29.3,6.39,8.24,9.59.32,26.52-12.45,25.84-32.55-.13-65.11-.19-97.67,0C188.66,169.44,180.48,153,188.37,143.22Z"/><path class="cls-3" d="M201.37,185.07c10.64.11,21.28-.24,31.92.05a16.43,16.43,0,0,1,13.33,6.25c3.4,4.08,3.37,9.67,3.46,14.7-.17,22.61,0,45.21-.14,67.82a61.52,61.52,0,0,0,1.54,14.94c4.61,19.22,8.89,38.53,13.45,57.77l.11.46c-20.7-.08-41.39-.05-62.09,0,9-16.9,18.17-33.76,27.25-50.62a30.34,30.34,0,0,0,3.66-14.9c0-22.62-.11-45.26,0-67.88-.23-3.43.23-7.55-2.52-10.12-3.76-3.95-11.35-2.46-13.05,2.8-.85,3.39-.74,6.91-.77,10.38.21,20.09-.06,40.16.16,60.24,0,4.26,0,8.71-2.15,12.53-27.28,51.07-55.5,101.65-82.32,153-2.61,6.46-7.94,12.43-7,19.82a16.32,16.32,0,0,0,16.55,14.24c47.66.28,95.33-.27,143,.28-4.54,7.82-12.48,12.47-20.48,16.1-41.25-.4-82.53.05-123.8-.24a32.38,32.38,0,0,1-27.28-48.31q41.46-77.08,83-154.12c1.85-3.76,4.88-7.34,4.31-11.8C201.36,247.28,201.57,216.17,201.37,185.07Z"/><path class="cls-4" d="M201.27,168.7c32.56-.22,65.12-.16,97.67,0,.12,37.08,0,74.18.06,111.26-.14,3.4,2.11,6.16,3.54,9.05q42,77.85,83.86,155.73c3.93,7.1,4.67,15.58,3,23.42A32.9,32.9,0,0,1,365.57,492c-7.37,1.46-14.9,1-22.35,1.05-26-.13-52,.21-78-.18,8-3.63,15.94-8.28,20.48-16.1l.64,0c21.44.39,42.89,0,64.34.21,4.5-.05,9.19.18,13.45-1.54a16.86,16.86,0,0,0,9.94-17.11c-1.06-5.27-4.08-9.82-6.54-14.52Q344,400.29,320.64,356.71c-2.74-5.75-8.51-10-15-10-13.56-.25-27.14.05-40.7-.09-4.56-19.24-8.84-38.55-13.45-57.77a61.52,61.52,0,0,1-1.54-14.94c.19-22.61,0-45.21.14-67.82-.09-5-.06-10.62-3.46-14.7a16.43,16.43,0,0,0-13.33-6.25c-10.64-.29-21.28.06-31.92-.05C201.24,179.61,201.3,174.15,201.27,168.7Z"/><path class="cls-5" d="M218.32,206.31c1.7-5.26,9.29-6.75,13.05-2.8,2.75,2.57,2.29,6.69,2.52,10.12-.14,22.62,0,45.26,0,67.88a30.34,30.34,0,0,1-3.66,14.9C221.12,313.27,212,330.13,203,347c-18,33.36-35.92,66.82-54,100.15-1.91,4.23-7.35,6.48-11.47,3.95-3.32-1.6-4-5.42-4.23-8.71,26.82-51.31,55-101.89,82.32-153,2.11-3.82,2.2-8.27,2.15-12.53-.22-20.08,0-40.15-.16-60.24C217.58,213.22,217.47,209.7,218.32,206.31Z"/></svg>