<svg id="Layer_1" data-name="Layer 1" xmlns="http://www.w3.org/2000/svg" viewBox="0 0 400 400"><defs><style>.cls-1{fill:#beddf4;}.cls-2{fill:#ede6f3;}.cls-3{fill:#7a5648;}.cls-4{fill:#ffcb2a;}.cls-5{fill:#3e2823;}.cls-6{fill:#ecb51f;}.cls-7{fill:#ee2849;}</style></defs><path class="cls-1" d="M95.61,37.65A193.93,193.93,0,0,1,311.16,360c-2.57,1.79-5.08,3.77-8,5,3.9-2.8,7.77-5.65,11.76-8.3A91.48,91.48,0,0,0,292.61,302c-9.12-10.5-20.69-18.59-33-25,15.6-15.44,31-31.08,46.62-46.49,0-27.17-2.59-54.59-10.53-80.68-5.89-18.52-15.13-37.1-31.16-48.86-10.27-7.7-23.14-11.11-35.84-11.25-3.3-4.86-6.44-9.83-9.88-14.6-17.26.2-35-.77-51.62,4.58a84.16,84.16,0,0,0-44.08,31.72c-11.62,16-18.47,34.88-22.87,54C94.75,189.89,93,215.07,93,240.12c16.15,12,31.87,24.54,48.17,36.31-19.67,9.29-37.12,24.3-47,43.92-5.78,11.07-8.59,23.37-10.07,35.68,7.74,6.78,16.79,11.53,25.45,16.93-5.06-2.23-9.46-5.75-14.71-7.56A19.19,19.19,0,0,0,89.72,361,193.83,193.83,0,0,1,95.61,37.65Z"/><path class="cls-2" d="M290,368.44a66.27,66.27,0,0,1,9.15-5.25A46.16,46.16,0,0,1,290,368.44Z"/><path class="cls-3" d="M167.22,79.7c16.66-5.35,34.36-4.38,51.62-4.58,3.44,4.77,6.58,9.74,9.88,14.6,12.7.14,25.57,3.55,35.84,11.25,16,11.76,25.27,30.34,31.16,48.86,7.94,26.09,10.53,53.51,10.53,80.68-15.62,15.41-31,31.05-46.62,46.49-.39.39-1.19,1.15-1.58,1.53-.08-.59-.26-1.78-.34-2.38-.11-16.63.75-33.31-.39-49.9.85-5.13.49-10.34.51-15.51,0-14.43-.05-28.87.06-43.29-.08-2.33.17-4.94-1.44-6.84-8.48-11.33-17.06-22.6-25.47-34-1-1.07-2-3.33-3.76-2-28.59,15.6-56.87,31.82-85.56,47.28-.42,11.58-.09,23.17-.19,34.77.17,6.53-.51,13.14.54,19.63-1.38,16.66.11,33.42-.81,50.1-16.3-11.77-32-24.32-48.17-36.31,0-25.05,1.72-50.23,7.24-74.72,4.4-19.1,11.25-38,22.87-54A84.16,84.16,0,0,1,167.22,79.7Z"/><path class="cls-3" d="M166,173.13c5.84-2.94,14.2.83,14.21,7.81,1.15,6.87-6.11,12.47-12.57,10.28C159.41,189.47,158.47,176.42,166,173.13Z"/><path class="cls-3" d="M224.27,173.1c5.77-2.84,14,.83,14.11,7.72,1.24,6.9-6,12.61-12.55,10.4C217.55,189.5,216.65,176.32,224.27,173.1Z"/><path class="cls-3" d="M299.56,362.68a4,4,0,0,1,3.38-2.22Q303,363.67,299.56,362.68Z"/><path class="cls-3" d="M111.17,369.13a1.41,1.41,0,0,0,.29.18A1.41,1.41,0,0,1,111.17,369.13Z"/><path class="cls-3" d="M288.52,369.38a1.83,1.83,0,0,1,.3-.18A1.83,1.83,0,0,0,288.52,369.38Z"/><path class="cls-3" d="M113.86,370.59l.32.17Z"/><path class="cls-3" d="M285.8,370.78l.35-.17Z"/><path class="cls-3" d="M116.5,371.88l.32.14Z"/><path class="cls-3" d="M283,372.1a3.91,3.91,0,0,1,.35-.18A3.91,3.91,0,0,0,283,372.1Z"/><path class="cls-4" d="M227.22,124.65c1.74-1.35,2.78.91,3.76,2,8.41,11.38,17,22.65,25.47,34,1.61,1.9,1.36,4.51,1.44,6.84-.11,14.42,0,28.86-.06,43.29,0,5.17.34,10.38-.51,15.51a78.85,78.85,0,0,1-23.77,23.41c-11,6.47-23.83,10.31-36.68,9.7a67,67,0,0,1-31.11-9.76A78.78,78.78,0,0,1,142,226.33c-1-6.49-.37-13.1-.54-19.63.1-11.6-.23-23.19.19-34.77C170.35,156.47,198.63,140.25,227.22,124.65ZM166,173.13c-7.53,3.29-6.59,16.34,1.64,18.09,6.46,2.19,13.72-3.41,12.57-10.28C180.2,174,171.84,170.19,166,173.13Zm58.27,0c-7.62,3.22-6.72,16.4,1.56,18.12,6.51,2.21,13.79-3.5,12.55-10.4C238.28,173.93,230,170.26,224.27,173.1Z"/><path class="cls-4" d="M166.29,272.29c6.75,5.48,11.21,13.28,18.13,18.65,5.45,4.84,13.16,9.47,20.58,6.24,12.11-4.73,18.64-16.7,28-24.87-1.86,10.56-4.93,21.09-10.53,30.32-4.1,6.72-10.2,12.92-18.2,14.54-8.13,1.82-16.74-1.5-22.2-7.61C172.8,299.35,168.71,285.59,166.29,272.29Z"/><path class="cls-5" d="M141.2,276.43c.92-16.68-.57-33.44.81-50.1a78.78,78.78,0,0,0,23.75,23.27c0,6.47-.23,13,.08,19.41C157.07,269,149,272.92,141.2,276.43Z"/><path class="cls-5" d="M257.32,226.25c1.14,16.59.28,33.27.39,49.9C250,272.79,242.06,269,233.45,269c.33-6.44.11-12.9.1-19.35A78.85,78.85,0,0,0,257.32,226.25Z"/><path class="cls-6" d="M165.76,249.6a67,67,0,0,0,31.11,9.76c12.85.61,25.65-3.23,36.68-9.7,0,6.45.23,12.91-.1,19.35-.12,1.09-.27,2.19-.44,3.3-9.37,8.17-15.9,20.14-28,24.87-7.42,3.23-15.13-1.4-20.58-6.24-6.92-5.37-11.38-13.17-18.13-18.65-.18-1.09-.33-2.19-.45-3.28C165.53,262.55,165.75,256.07,165.76,249.6Z"/><path class="cls-7" d="M141.2,276.43c7.82-3.51,15.87-7.42,24.64-7.42.12,1.09.27,2.19.45,3.28,2.42,13.3,6.51,27.06,15.79,37.27,5.46,6.11,14.07,9.43,22.2,7.61,8-1.62,14.1-7.82,18.2-14.54,5.6-9.23,8.67-19.76,10.53-30.32.17-1.11.32-2.21.44-3.3,8.61,0,16.54,3.78,24.26,7.14.08.6.26,1.79.34,2.38.39-.38,1.19-1.14,1.58-1.53,12.29,6.38,23.86,14.47,33,25a91.48,91.48,0,0,1,22.31,54.67c-4,2.65-7.86,5.5-11.76,8.3l-.57.12a4,4,0,0,0-3.38,2.22l-.45.51a65.73,65.73,0,0,0-9.14,5.25l-1.15.76a2.91,2.91,0,0,0-.3.17l-2.37,1.24-.35.17L283,376.52l-.35.17-2.39,1.17-.63.32-2-.13c-2.2-.61-3.93.93-5.14,2.53-2.12,2.11-5.28,2.5-7.93,3.66-2.84.82-5.63,2.59-8.69,2.11a3.22,3.22,0,0,0-3.45,1.48l-1.62.07-2.53,1.24c-2.71.91-5.59,1.94-8.47,1.38a3.59,3.59,0,0,0-3.64,1.21c-.8,0-2.4.09-3.18.12-2.17-.65-4.28.16-6.15,1.22-.84.06-2.49.21-3.32.29a9,9,0,0,0-7.41,1.05,124.64,124.64,0,0,1-33,0,9.55,9.55,0,0,0-7.48-1.06c-4.24.53-8.55-.42-12.58-1.66a3.81,3.81,0,0,0-3.7-1.22l-1.88.27a2.66,2.66,0,0,0-3.49-1.48l-3.11,0-2.48-1.3c-7.41-.66-14.49-4-21.38-6.77a63.94,63.94,0,0,0-8.8-3.82l-1.83-.72a2.81,2.81,0,0,1-.33-.13l-2.31-1.13-.32-.16-2.4-1.28-.3-.18-1.23-.77c-8.66-5.4-17.71-10.15-25.45-16.93,1.48-12.31,4.29-24.61,10.07-35.68C104.08,300.73,121.53,285.72,141.2,276.43Z"/></svg>