<svg id="Layer_1" data-name="Layer 1" xmlns="http://www.w3.org/2000/svg" viewBox="0 0 500 500"><defs><style>.cls-1{fill:#ffd52f;}.cls-2{fill:#fbad18;}.cls-3{fill:#fcaf17;}.cls-4{fill:#fec01e;}.cls-5{fill:#febe1d;}.cls-6{fill:#ffc724;}.cls-7{fill:#ffca25;}.cls-8{fill:#ffd72f;}.cls-9{fill:#ffd830;}.cls-10{fill:#faa21b;}.cls-11{fill:#fed933;}.cls-12{fill:#ffca26;}.cls-13{fill:#ffc524;}.cls-14{fill:#fdb518;}.cls-15{fill:#fdb517;}.cls-16{fill:#faa71a;}.cls-17{fill:#faa819;}.cls-18{fill:#fed831;}.cls-19{fill:#ffcb26;}.cls-20{fill:#fdb81b;}.cls-21{fill:#fba919;}.cls-22{font-size:179.18px;fill:#fff;font-family:FranklinGothic-Medium, Franklin Gothic Medium;font-weight:500;}</style></defs><path class="cls-1" d="M239.66,13.1c3.41-8.66,17.1-8.71,20.61-.09,21.91,45.43,43.56,91,65.44,136.4,49.46,6.34,98.88,13.12,148.31,19.71,6.34.14,12,5.77,11.38,12.23,0,5.14-4.42,8.41-7.75,11.64Q425,243.14,372.35,293.3c9.07,48.84,17.94,97.72,26.95,146.56,3.76,9.5-7.54,19.65-16.38,14.13Q316.44,418.1,250,382.15q-63.83,34.67-127.75,69.1c-4,2.07-8.25,5.18-13,4a11.52,11.52,0,0,1-8.73-14.11q13.49-74,27.11-147.89-54.52-52-109.14-104c-5.18-4.16-5.2-12.84-.08-17.05,3.4-3.27,8.42-3,12.75-3.7q71.6-9.48,143.15-19.1C196.13,104,217.8,58.5,239.66,13.1Zm6.16,32.83c-3.28,2-4.55,6-6.36,9.16C222.67,89.5,206.6,124.28,189.65,158.6c-2.74,5.88-9.94,5.57-15.38,6.6-24.9,2.87-49.65,6.81-74.54,9.74-12.59,2.3-25.53,2.63-38,5.83-5.44,1.44-9.4,9.19-4.88,13.65,7.09,8.56,16.13,15.18,24,23,7.53,7.61,15,15.27,23,22.49,12.35,10.09,22.6,22.42,34.63,32.86,3.19,2.94,6.84,5.65,9,9.5.68,3.94-.29,7.91-.92,11.79C140.4,328,134,361.87,127.78,395.79c-.72,4.92-1.79,10-.71,15,1.07,4.31,6.06,7.15,10.25,5.45,8.19-2.63,15.37-7.51,23-11.42q40.35-21.51,80.47-43.44c4.48-2.29,9.86-6.18,14.75-2.52,34.3,19.18,69.07,37.47,103.59,56.24,5.72,3.72,14.63-.05,15.14-7.08-.25-5.94-2.11-11.67-3-17.54-6-32.67-12.12-65.3-18-98-.52-3.33-1.36-6.77-.7-10.14,3.19-5.5,8.7-9,13.27-13.31,23.83-23.16,47.93-46,72.12-68.78,3.14-3.14,7.27-6.44,7-11.37.69-5.64-5.64-8-10-9.22-35.77-4.54-71.45-9.94-107.23-14.49-4.67-.55-9.6-.22-14-2.13-7.15-9.23-10.42-20.7-15.93-30.87-4.74-8.65-8-18-12.75-26.66-4.82-8.88-8.53-18.3-13.2-27.25-5.16-10-8.62-21-15.27-30.12A8.14,8.14,0,0,0,245.82,45.93Z"/><path class="cls-1" d="M406,304.69c2.35-2.05,5.74-1.22,8.54-1,5.24,1.23,10.69,1.27,15.9,2.65,1.25,3.86,4.23,8.06,2,12.13-2,3.16-5.92,4.24-9.08,5.82-5.54-3.27-11-6.68-16.35-10.27C403.67,312.26,402.87,307,406,304.69Z"/><path class="cls-2" d="M68.39,56.14a17.82,17.82,0,0,1,17.29-13c6.28-.05,12,3.6,15.78,8.45,4.71,5.6,9.32,11.28,14.08,16.85-6.29-2.65-14.12-1.63-18.45,4-3.65,5.14-1.08,11.8,1.27,16.9-7.4-4.28-15-8.35-22.14-13C69.72,72.07,66.19,63.65,68.39,56.14Z"/><path class="cls-3" d="M395.26,51.35c4.71-6.89,14.17-10.31,22-7,8.62,3.2,13.46,13.7,10.2,22.33-2.28,7-9,10.91-14.83,14.79-4.85,3.13-9.44,6.68-14.49,9.5L398,90.5c.45-5.43.94-12.06-4.05-15.69-4-4.1-9.84-1.44-14.4,0C384.58,66.86,389.93,59.11,395.26,51.35Z"/><path class="cls-4" d="M245.82,45.93a8.14,8.14,0,0,1,10.69,2.18c6.65,9.17,10.11,20.12,15.27,30.12,4.67,9,8.38,18.37,13.2,27.25,4.75,8.63,8,18,12.75,26.66,5.51,10.17,8.78,21.64,15.93,30.87,4.36,1.91,9.29,1.58,14,2.13,35.78,4.55,71.46,10,107.23,14.49,4.38,1.21,10.71,3.58,10,9.22.26,4.93-3.87,8.23-7,11.37C413.67,223,389.57,245.84,365.74,269c-4.57,4.27-10.08,7.81-13.27,13.31-.66,3.37.18,6.81.7,10.14,5.92,32.69,12.07,65.32,18,98,.91,5.87,2.77,11.6,3,17.54-.51,7-9.42,10.8-15.14,7.08C324.57,396.29,289.8,378,255.5,358.82c-4.89-3.66-10.27.23-14.75,2.52q-40.12,21.9-80.47,43.44c-7.59,3.91-14.77,8.79-23,11.42-4.19,1.7-9.18-1.14-10.25-5.45-1.08-5,0-10,.71-15C134,361.87,140.4,328,146.57,294c.63-3.88,1.6-7.85.92-11.79-2.17-3.85-5.82-6.56-9-9.5-12-10.44-22.28-22.77-34.63-32.86-7.92-7.22-15.43-14.88-23-22.49C73,209.6,64,203,56.89,194.42c-4.52-4.46-.56-12.21,4.88-13.65,12.43-3.2,25.37-3.53,38-5.83,24.89-2.93,49.64-6.87,74.54-9.74,5.44-1,12.64-.72,15.38-6.6,16.95-34.32,33-69.1,49.81-103.51C241.27,51.9,242.54,47.89,245.82,45.93Zm-.5,47.82c-4.47,6.39-6.51,14.1-10.37,20.83-5,8.89-8.61,18.47-13.1,27.61-5.26,10-10,20.2-14.47,30.56-1.74,3.39-3,8.29-7.56,8.62-31.44,4.88-63.28,7.4-94.48,13.55q0,4.58-.13,9.15c6.68,6.56,15.16,10.91,21.53,17.81,7,7.5,15.56,13.51,21.74,21.8,7.34,9.42,17.52,16.24,24.66,25.76.86,11.89-3.77,23.51-4.68,35.36a159,159,0,0,0-4.68,26.51c-4,11-3.5,22.84-7,33.95a50.11,50.11,0,0,0,4.93,4.51c3.38.8,6.49-1.31,9.44-2.66,20.84-11.75,42-23,63.15-34.16,5.29-2.72,10.16-8.06,16.6-7,8.09,1.65,14.67,7,21.87,10.68,21.4,10.11,41,23.68,62.79,33,3.82,1.61,5.43-3.22,7.54-5.43-3-11.34-3.67-23.13-6.94-34.41-.93-12.27-5.37-23.89-6.14-36.18-.48-6.82-3.25-13.17-4.27-19.87-1.24-5.57,4.57-8.51,7.78-11.94,19.43-18.68,39.23-37,58.44-55.93,3.49-2.56,2.85-6.93,2.58-10.71-6.69-2.46-13.81-3.32-20.89-4-22.45-2.94-44.89-6.05-67.36-9-4.37-.72-10.17-1.24-12-6.09-7.24-17.37-16.72-33.7-24.14-51-4.76-9.47-9.19-19.09-13.8-28.61C254.9,91.86,248.92,92.25,245.32,93.75Z"/><path class="cls-5" d="M97.09,72.36c4.33-5.6,12.16-6.62,18.45-4,2.64,3.08,5,6.37,7.87,9.31-4.49-.19-9.87-2.13-13.74,1C106,82.93,106.78,89.06,107,94.26c-2.91-1.63-5.92-3.09-8.67-5C96,84.16,93.44,77.5,97.09,72.36Z"/><path class="cls-6" d="M379.52,74.81c4.56-1.44,10.41-4.1,14.4,0,5,3.63,4.5,10.26,4.05,15.69l-.69,1.17c-4.21,3.1-8.6,5.92-12.89,8.89-.44-2.74-.63-5.55-1.6-8.17-2-3.88-6.79-4.42-10.5-5.5l-.51-.52c2.22-3.9,5-7.47,7.18-11.39Z"/><path class="cls-7" d="M109.67,78.69c3.87-3.12,9.25-1.18,13.74-1,2.75,3.65,5.71,7.12,8.73,10.55-2.63,1.06-5.4,1.87-7.78,3.42-2.48,2.87-3.06,6.79-4.28,10.27-4.32-2.61-8.84-4.9-13-7.68C106.78,89.06,106,82.93,109.67,78.69Z"/><path class="cls-8" d="M371.06,87.37l1.23-.48c3.71,1.08,8.53,1.62,10.5,5.5,1,2.62,1.16,5.43,1.6,8.17-5.9,3.69-11.38,8-17.45,11.38-4,2.22-9.25-2.41-7.51-6.73C362.64,98.89,367.05,93.21,371.06,87.37Z"/><path class="cls-9" d="M124.36,91.67c2.38-1.55,5.15-2.36,7.78-3.42,4.18,5.76,9.61,10.65,13.16,16.83,1.91,4.37-3.43,9.16-7.56,6.84-6.07-3-11.75-6.71-17.66-10C121.3,98.46,121.88,94.54,124.36,91.67Z"/><path class="cls-10" d="M245.32,93.75c3.6-1.5,9.58-1.89,11.07,2.77,4.61,9.52,9,19.14,13.8,28.61,7.42,17.31,16.9,33.64,24.14,51,1.79,4.85,7.59,5.37,12,6.09,22.47,2.93,44.91,6,67.36,9,7.08.66,14.2,1.52,20.89,4,.27,3.78.91,8.15-2.58,10.71-19.21,18.92-39,37.25-58.44,55.93-3.21,3.43-9,6.37-7.78,11.94,1,6.7,3.79,13.05,4.27,19.87.77,12.29,5.21,23.91,6.14,36.18,3.27,11.28,4,23.07,6.94,34.41-2.11,2.21-3.72,7-7.54,5.43-21.77-9.34-41.39-22.91-62.79-33-7.2-3.67-13.78-9-21.87-10.68-6.44-1.07-11.31,4.27-16.6,7-21.17,11.16-42.31,22.41-63.15,34.16-2.95,1.35-6.06,3.46-9.44,2.66a50.11,50.11,0,0,1-4.93-4.51c3.51-11.11,3-22.95,7-33.95a159,159,0,0,1,4.68-26.51c.91-11.85,5.54-23.47,4.68-35.36-7.14-9.52-17.32-16.34-24.66-25.76-6.18-8.29-14.71-14.3-21.74-21.8-6.37-6.9-14.85-11.25-21.53-17.81q.09-4.57.13-9.15c31.2-6.15,63-8.67,94.48-13.55,4.57-.33,5.82-5.23,7.56-8.62,4.47-10.36,9.21-20.6,14.47-30.56,4.49-9.14,8.09-18.72,13.1-27.61C238.81,107.85,240.85,100.14,245.32,93.75Z"/><path class="cls-11" d="M82.22,305c5.14-.16,10.27-2.63,15.39-1.11a5.61,5.61,0,0,1,1.15,9.32c-4.27,3.56-9.17,6.25-13.73,9.38-2.68-3.07-6-5.82-7.36-9.78C77.3,309.51,80.52,307.38,82.22,305Z"/><path class="cls-12" d="M65.29,307.88c5.57-1.41,11.33-1.66,16.93-2.89-1.7,2.39-4.92,4.52-4.55,7.81,1.32,4,4.68,6.71,7.36,9.78-3.27,2.14-6.44,4.49-9.85,6.44-4.79.1-10.11-1.26-12.17-6.08C59.58,318,63.35,312.56,65.29,307.88Z"/><path class="cls-13" d="M430.44,306.35c6.26.3,12.3,2.19,18.61,2.17l.09.93c.19,5.3,3.77,10.65,1.13,15.8-2.13,4.59-7.19,6.45-11.25,8.89-5.23-3.27-10.54-6.43-15.67-9.84,3.16-1.58,7.11-2.66,9.08-5.82C434.67,314.41,431.69,310.21,430.44,306.35Z"/><path class="cls-14" d="M44.26,311.31c6.86-1.86,14-2.44,21-3.43C63.35,312.56,59.58,318,63,322.94c2.06,4.82,7.38,6.18,12.17,6.08-6.21,4.15-12.37,8.42-18.77,12.29-7.33,1-15.62-1.07-19.38-8C32,325.6,37.35,315.82,44.26,311.31Z"/><path class="cls-15" d="M450.27,325.25c2.64-5.15-.94-10.5-1.13-15.8,4.05.44,8.48-.33,12.22,1.7,5.67,4.38,10.59,11.79,7.86,19.16-2.27,7.37-10,10.72-17.14,11.42-4.76-1.72-8.7-5.1-13.06-7.59C443.08,331.7,448.14,329.84,450.27,325.25Z"/><path class="cls-16" d="M23.14,327c1.47-9.82,11.64-16.21,21.12-15.69-6.91,4.51-12.25,14.29-7.23,22,3.76,6.93,12,9,19.38,8-5,3.88-11.07,7.23-17.66,6.33C28.91,346.86,21.21,336.71,23.14,327Z"/><path class="cls-17" d="M461.36,311.15c9.11-.54,19.42,4,22.28,13.24,3.74,10.16-3.92,22.27-14.67,23.22-6.59,1.07-12.48-2.45-17.86-5.71l1-.17c7.11-.7,14.87-4.05,17.14-11.42C472,322.94,467,315.53,461.36,311.15Z"/><path class="cls-18" d="M244.89,407.8c1.64-4.4,8.48-4.43,10.15-.05,1.88,5.08,2.22,10.65,3.51,15.93-2.66,2.64-5.23,6.49-9.49,6.13-3.31.27-5.35-2.8-7.55-4.71C242.38,419.3,243,413.35,244.89,407.8Z"/><path class="cls-19" d="M249.06,429.81c4.26.36,6.83-3.49,9.49-6.13,1,5.1,2,10.22,2.89,15.35-3.38,3.35-6.41,8-11.47,8.73-5.44-.25-8.65-5.19-11.14-9.42.11-4.77,2.24-9.26,1.83-14.07l.85.83C243.71,427,245.75,430.08,249.06,429.81Z"/><path class="cls-20" d="M238.83,438.34c2.49,4.23,5.7,9.17,11.14,9.42,5.06-.78,8.09-5.38,11.47-8.73,1.21,5.87,2.38,11.77,3.43,17.68-.53,4.3-1,9.12-4.18,12.39a15,15,0,0,1-17,3.4c-5.43-2.79-7.5-9.06-8.62-14.65A189.83,189.83,0,0,1,238.83,438.34Z"/><path class="cls-21" d="M234.67,456.21l.36,1.64c1.12,5.59,3.19,11.86,8.62,14.65a15,15,0,0,0,17-3.4c3.21-3.27,3.65-8.09,4.18-12.39,1.59,9.7,6.07,21.14-.77,29.86-6.76,9.51-22.67,9-28.85-.88C228.91,476.79,234.28,465.93,234.67,456.21Z"/><text class="cls-22" transform="translate(192.65 303.34)">G</text></svg>