<svg xmlns="http://www.w3.org/2000/svg" xmlns:xlink="http://www.w3.org/1999/xlink" preserveAspectRatio="xMidYMid meet" width="400" height="400" viewBox="0 0 400 400" style="width:100%;height:100%"><defs><animateTransform repeatCount="indefinite" dur="5s" begin="0s" xlink:href="#_R_G_L_8_G" fill="freeze" attributeName="transform" from="0 0" to="1 1" type="scale" additive="sum" keyTimes="0;0.128;0.328;1" values="0 0;0 0;1 1;1 1" keySplines="0.333 0 0 1;0.333 0 0 1;0 0 0 0" calcMode="spline"/><animate repeatCount="indefinite" dur="5s" begin="0s" xlink:href="#_R_G_L_8_G_M" fill="freeze" attributeName="opacity" from="0" to="0" keyTimes="0;0.128;0.1280008;0.488;0.488;1" values="0;0;1;1;0;0" keySplines="0 0 0 0;0 0 0 0;0 0 0 0;0 0 0 0;0 0 0 0" calcMode="spline"/><animateTransform repeatCount="indefinite" dur="5s" begin="0s" xlink:href="#_R_G_L_7_G" fill="freeze" attributeName="transform" from="0 0" to="1 1" type="scale" additive="sum" keyTimes="0;0.2;1" values="0 0;1 1;1 1" keySplines="0.333 0 0 1;0 0 0 0" calcMode="spline"/><animate repeatCount="indefinite" dur="5s" begin="0s" xlink:href="#_R_G_L_7_G_M" fill="freeze" attributeName="opacity" from="1" to="0" keyTimes="0;0.488;0.488;1" values="1;1;0;0" keySplines="0 0 0 0;0 0 0 0;0 0 0 0" calcMode="spline"/><animateTransform repeatCount="indefinite" dur="5s" begin="0s" xlink:href="#_R_G_L_6_G" fill="freeze" attributeName="transform" from="0 0" to="1 1" type="scale" additive="sum" keyTimes="0;0.064;0.264;1" values="0 0;0 0;1 1;1 1" keySplines="0.333 0 0 1;0.333 0 0 1;0 0 0 0" calcMode="spline"/><animate repeatCount="indefinite" dur="5s" begin="0s" xlink:href="#_R_G_L_6_G_M" fill="freeze" attributeName="opacity" from="0" to="0" keyTimes="0;0.064;0.0640008;0.488;0.488;1" values="0;0;1;1;0;0" keySplines="0 0 0 0;0 0 0 0;0 0 0 0;0 0 0 0;0 0 0 0" calcMode="spline"/><animateTransform repeatCount="indefinite" dur="5s" begin="0s" xlink:href="#_R_G_L_5_G" fill="freeze" attributeName="transform" from="0 0" to="1 1" type="scale" additive="sum" keyTimes="0;0.576;0.776;1" values="0 0;0 0;1 1;1 1" keySplines="0.333 0 0 1;0.333 0 0 1;0 0 0 0" calcMode="spline"/><animate repeatCount="indefinite" dur="5s" begin="0s" xlink:href="#_R_G_L_5_G_M" fill="freeze" attributeName="opacity" from="0" to="0" keyTimes="0;0.576;0.5760008;0.976;0.976;1" values="0;0;1;1;0;0" keySplines="0 0 0 0;0 0 0 0;0 0 0 0;0 0 0 0;0 0 0 0" calcMode="spline"/><animateTransform repeatCount="indefinite" dur="5s" begin="0s" xlink:href="#_R_G_L_4_G" fill="freeze" attributeName="transform" from="0 0" to="1 1" type="scale" additive="sum" keyTimes="0;0.488;0.688;1" values="0 0;0 0;1 1;1 1" keySplines="0.333 0 0 1;0.333 0 0 1;0 0 0 0" calcMode="spline"/><animate repeatCount="indefinite" dur="5s" begin="0s" xlink:href="#_R_G_L_4_G_M" fill="freeze" attributeName="opacity" from="0" to="0" keyTimes="0;0.488;0.4880008;0.976;0.976;1" values="0;0;1;1;0;0" keySplines="0 0 0 0;0 0 0 0;0 0 0 0;0 0 0 0;0 0 0 0" calcMode="spline"/><animateTransform repeatCount="indefinite" dur="5s" begin="0s" xlink:href="#_R_G_L_3_G" fill="freeze" attributeName="transform" from="0 0" to="1 1" type="scale" additive="sum" keyTimes="0;0.664;0.864;1" values="0 0;0 0;1 1;1 1" keySplines="0.333 0 0 1;0.333 0 0 1;0 0 0 0" calcMode="spline"/><animate repeatCount="indefinite" dur="5s" begin="0s" xlink:href="#_R_G_L_3_G_M" fill="freeze" attributeName="opacity" from="0" to="0" keyTimes="0;0.664;0.6640008;0.976;0.976;1" values="0;0;1;1;0;0" keySplines="0 0 0 0;0 0 0 0;0 0 0 0;0 0 0 0;0 0 0 0" calcMode="spline"/><animateMotion repeatCount="indefinite" dur="5s" begin="0s" xlink:href="#_R_G_L_2_G" fill="freeze" keyTimes="0;0.16;0.368;1" path="M-10 226 C-10,226 -10,226 -10,226 C52.5,198.67 302.5,89.33 365,62 C365,62 365,62 365,62 " keyPoints="0;0;1;1" keySplines="0.167 0.167 0.833 0.833;0.167 0.167 0.833 0.833;0 0 0 0" calcMode="spline"/><animateTransform repeatCount="indefinite" dur="5s" begin="0s" xlink:href="#_R_G_L_2_G" fill="freeze" attributeName="transform" from="94 19" to="94 19" type="translate" additive="sum" keyTimes="0;1" values="94 19;94 19" keySplines="0 0 1 1" calcMode="spline"/><animate repeatCount="indefinite" dur="5s" begin="0s" xlink:href="#_R_G_L_2_G_M" fill="freeze" attributeName="opacity" from="0" to="0" keyTimes="0;0.16;0.1600008;0.376;0.376;1" values="0;0;1;1;0;0" keySplines="0 0 0 0;0 0 0 0;0 0 0 0;0 0 0 0;0 0 0 0" calcMode="spline"/><animateMotion repeatCount="indefinite" dur="5s" begin="0s" xlink:href="#_R_G_L_1_G" fill="freeze" keyTimes="0;0.632;0.84;1" path="M-10 226 C-10,226 -10,226 -10,226 C52.5,198.67 302.5,89.33 365,62 C365,62 365,62 365,62 " keyPoints="0;0;1;1" keySplines="0.167 0.167 0.833 0.833;0.167 0.167 0.833 0.833;0 0 0 0" calcMode="spline"/><animateTransform repeatCount="indefinite" dur="5s" begin="0s" xlink:href="#_R_G_L_1_G" fill="freeze" attributeName="transform" from="94 19" to="94 19" type="translate" additive="sum" keyTimes="0;1" values="94 19;94 19" keySplines="0 0 1 1" calcMode="spline"/><animate repeatCount="indefinite" dur="5s" begin="0s" xlink:href="#_R_G_L_1_G_M" fill="freeze" attributeName="opacity" from="0" to="0" keyTimes="0;0.632;0.6320008;0.848;0.848;1" values="0;0;1;1;0;0" keySplines="0 0 0 0;0 0 0 0;0 0 0 0;0 0 0 0;0 0 0 0" calcMode="spline"/><animateMotion repeatCount="indefinite" dur="5s" begin="0s" xlink:href="#_R_G_L_0_G" fill="freeze" keyTimes="0;0.312;0.76;1" path="M114.9 206.27 C107.15,152.19 139.52,120.41 155.4,118.77 C214.75,112.64 233.79,217.04 194.4,242.77 C155,268.5 117.17,222.18 114.9,206.27 " keyPoints="0;0.28;0.73;1" keySplines="0 0 0 1;1 0 0.388 1;0.962 0 1 1" calcMode="spline"/><animateTransform repeatCount="indefinite" dur="5s" begin="0s" xlink:href="#_R_G_L_0_G" fill="freeze" attributeName="transform" from="0" to="0" type="rotate" additive="sum" keyTimes="0;0.312;0.76;1" values="0;-3;-3;0" keySplines="0 0 0 1;1 0 0.388 1;0.962 0 1 1" calcMode="spline"/><animateTransform repeatCount="indefinite" dur="5s" begin="0s" xlink:href="#_R_G_L_0_G" fill="freeze" attributeName="transform" from="-428.769 -555.329" to="-428.769 -555.329" type="translate" additive="sum" keyTimes="0;1" values="-428.769 -555.329;-428.769 -555.329" keySplines="0 0 1 1" calcMode="spline"/><animate attributeType="XML" attributeName="opacity" dur="5s" from="0" to="1" xlink:href="#time_group"/></defs><g id="_R_G"><g id="_R_G_L_8_G_M"><g id="_R_G_L_8_G" transform=" translate(155.939, 119.728)"><path id="_R_G_L_8_G_D_0_P_0" fill="#ffea79" fill-opacity="1" fill-rule="nonzero" d=" M-1.18 -26.72 C0.81,-27.58 2.43,-25.97 2.9,-24.15 C5.3,-17.53 9.08,-11.14 14.96,-7.03 C17.89,-4.72 21.54,-3.71 24.72,-1.84 C26.04,-1.05 25.6,0.48 25.11,1.64 C21.13,3.99 16.53,5.36 13.08,8.57 C7.82,12.79 4.78,18.95 2.43,25.12 C1.99,26.97 -0.1,27.37 -1.62,26.59 C-3.94,22.73 -4.97,18.18 -7.75,14.58 C-11.53,8.83 -17.48,5.08 -23.73,2.54 C-25.55,2.07 -26.01,-0.08 -25.24,-1.62 C-22.51,-3.38 -19.31,-4.28 -16.59,-6.07 C-10.88,-9.78 -6.41,-15.33 -3.97,-21.68 C-3.14,-23.39 -2.75,-25.51 -1.18,-26.72z "/></g></g><g id="_R_G_L_7_G_M"><g id="_R_G_L_7_G" transform=" translate(268.231, 173.838)"><path id="_R_G_L_7_G_D_0_P_0" fill="#ffd200" fill-opacity="1" fill-rule="nonzero" d=" M-1.19 -74.39 C0.12,-74.97 2.05,-74.45 2.37,-72.9 C3.41,-69.43 3.86,-65.81 4.85,-62.32 C9.14,-46.18 17.47,-30.72 30.32,-19.8 C38.25,-13.15 47.52,-7.92 57.58,-5.3 C61.54,-4.04 65.74,-3.63 69.61,-2.12 C71.52,-0.62 70.57,2.52 68.18,2.79 C56.66,5.4 45.19,9.24 35.51,16.2 C17.17,28.88 6.35,50.1 2.67,71.71 C2.67,74.04 -0.61,75.79 -2.14,73.69 C-3.59,70.16 -3.96,66.3 -5.04,62.66 C-9.58,45.05 -19.38,28.44 -34.04,17.43 C-42.94,10.63 -53.46,6.2 -64.35,3.75 C-66.14,3.29 -68.04,3.04 -69.67,2.13 C-71.55,0.89 -70.43,-2.28 -68.29,-2.41 C-57.43,-4.77 -46.7,-8.43 -37.49,-14.77 C-18.81,-26.91 -7.45,-47.9 -3.4,-69.42 C-2.81,-71.07 -3.12,-73.65 -1.19,-74.39z "/></g></g><g id="_R_G_L_6_G_M"><g id="_R_G_L_6_G" transform=" translate(192.596, 244.729)"><path id="_R_G_L_6_G_D_0_P_0" fill="#ffe354" fill-opacity="1" fill-rule="nonzero" d=" M-1.69 -26.54 C1.76,-28.37 2.96,-24.07 3.91,-21.69 C7.05,-13.22 13.84,-6.19 22.37,-3.12 C24.62,-2.67 26.84,-0.3 24.93,1.85 C21.01,3.97 16.6,5.33 13.28,8.44 C7.82,12.78 4.65,19.12 2.28,25.52 C1.13,28.28 -2.6,26.76 -2.91,24.24 C-5.98,14.93 -12.81,6.77 -22.12,3.3 C-24.26,2.82 -26.97,0.42 -24.91,-1.72 C-20.27,-4.35 -15.02,-6.14 -11.37,-10.24 C-6.58,-14.64 -4.41,-20.85 -1.69,-26.54z "/></g></g><g id="_R_G_L_5_G_M"><g id="_R_G_L_5_G" transform=" translate(155.939, 119.728)"><path id="_R_G_L_5_G_D_0_P_0" fill="#ffea79" fill-opacity="1" fill-rule="nonzero" d=" M-1.18 -26.72 C0.81,-27.58 2.43,-25.97 2.9,-24.15 C5.3,-17.53 9.08,-11.14 14.96,-7.03 C17.89,-4.72 21.54,-3.71 24.72,-1.84 C26.04,-1.05 25.6,0.48 25.11,1.64 C21.13,3.99 16.53,5.36 13.08,8.57 C7.82,12.79 4.78,18.95 2.43,25.12 C1.99,26.97 -0.1,27.37 -1.62,26.59 C-3.94,22.73 -4.97,18.18 -7.75,14.58 C-11.53,8.83 -17.48,5.08 -23.73,2.54 C-25.55,2.07 -26.01,-0.08 -25.24,-1.62 C-22.51,-3.38 -19.31,-4.28 -16.59,-6.07 C-10.88,-9.78 -6.41,-15.33 -3.97,-21.68 C-3.14,-23.39 -2.75,-25.51 -1.18,-26.72z "/></g></g><g id="_R_G_L_4_G_M"><g id="_R_G_L_4_G" transform=" translate(268.231, 173.838)"><path id="_R_G_L_4_G_D_0_P_0" fill="#ffd200" fill-opacity="1" fill-rule="nonzero" d=" M-1.19 -74.39 C0.12,-74.97 2.05,-74.45 2.37,-72.9 C3.41,-69.43 3.86,-65.81 4.85,-62.32 C9.14,-46.18 17.47,-30.72 30.32,-19.8 C38.25,-13.15 47.52,-7.92 57.58,-5.3 C61.54,-4.04 65.74,-3.63 69.61,-2.12 C71.52,-0.62 70.57,2.52 68.18,2.79 C56.66,5.4 45.19,9.24 35.51,16.2 C17.17,28.88 6.35,50.1 2.67,71.71 C2.67,74.04 -0.61,75.79 -2.14,73.69 C-3.59,70.16 -3.96,66.3 -5.04,62.66 C-9.58,45.05 -19.38,28.44 -34.04,17.43 C-42.94,10.63 -53.46,6.2 -64.35,3.75 C-66.14,3.29 -68.04,3.04 -69.67,2.13 C-71.55,0.89 -70.43,-2.28 -68.29,-2.41 C-57.43,-4.77 -46.7,-8.43 -37.49,-14.77 C-18.81,-26.91 -7.45,-47.9 -3.4,-69.42 C-2.81,-71.07 -3.12,-73.65 -1.19,-74.39z "/></g></g><g id="_R_G_L_3_G_M"><g id="_R_G_L_3_G" transform=" translate(192.596, 244.729)"><path id="_R_G_L_3_G_D_0_P_0" fill="#ffe354" fill-opacity="1" fill-rule="nonzero" d=" M-1.69 -26.54 C1.76,-28.37 2.96,-24.07 3.91,-21.69 C7.05,-13.22 13.84,-6.19 22.37,-3.12 C24.62,-2.67 26.84,-0.3 24.93,1.85 C21.01,3.97 16.6,5.33 13.28,8.44 C7.82,12.78 4.65,19.12 2.28,25.52 C1.13,28.28 -2.6,26.76 -2.91,24.24 C-5.98,14.93 -12.81,6.77 -22.12,3.3 C-24.26,2.82 -26.97,0.42 -24.91,-1.72 C-20.27,-4.35 -15.02,-6.14 -11.37,-10.24 C-6.58,-14.64 -4.41,-20.85 -1.69,-26.54z "/></g></g><g id="_R_G_L_2_G_M"><g id="_R_G_L_2_G" opacity="0.3"><path id="_R_G_L_2_G_D_0_P_0" fill="#ffffff" fill-opacity="1" fill-rule="nonzero" d=" M-35 -95.18 C19.74,-95.18 64.18,-50.74 64.18,4 C64.18,58.74 19.74,103.18 -35,103.18 C-89.74,103.18 -134.18,58.74 -134.18,4 C-134.18,-50.74 -89.74,-95.18 -35,-95.18z "/></g></g><g id="_R_G_L_1_G_M"><g id="_R_G_L_1_G" opacity="0.3"><path id="_R_G_L_1_G_D_0_P_0" fill="#ffffff" fill-opacity="1" fill-rule="nonzero" d=" M-35 -95.18 C19.74,-95.18 64.18,-50.74 64.18,4 C64.18,58.74 19.74,103.18 -35,103.18 C-89.74,103.18 -134.18,58.74 -134.18,4 C-134.18,-50.74 -89.74,-95.18 -35,-95.18z "/></g></g><g id="_R_G_L_0_G"><path id="_R_G_L_0_G_D_0_P_0" fill="#ee3f24" fill-opacity="1" fill-rule="nonzero" d=" M428.7 515.4 C406.4,515.4 388.31,533.49 388.31,555.79 C388.31,578.1 406.4,596.19 428.7,596.19 C451.01,596.19 469.1,578.1 469.1,555.79 C469.1,533.49 451.01,515.4 428.7,515.4z  M428.7 580.49 C415.06,580.49 404.01,569.43 404.01,555.79 C404.01,542.15 415.06,531.1 428.7,531.1 C442.34,531.1 453.4,542.15 453.4,555.79 C453.4,569.43 442.34,580.49 428.7,580.49z "/><path id="_R_G_L_0_G_D_1_P_0" fill="#ee3f24" fill-opacity="1" fill-rule="nonzero" d=" M375.37 634.26 C375.37,634.26 406.21,599.14 406.21,599.14 C400.48,596.45 395.53,592.5 391.69,587.63 C391.69,587.63 361.44,622.07 361.44,622.07 C361.44,622.07 375.37,634.26 375.37,634.26z "/></g></g><g id="time_group"/></svg>