<svg id="Layer_1" data-name="Layer 1" xmlns="http://www.w3.org/2000/svg" viewBox="0 0 500 500"><defs><style>.cls-1{fill:#ffd52f;}.cls-2{fill:#fbad18;}.cls-3{fill:#fcaf17;}.cls-4{fill:#febe1d;}.cls-5{fill:#ffc724;}.cls-6{fill:#ffca25;}.cls-7{fill:#ffd72f;}.cls-8{fill:#ffd830;}.cls-9{fill:#fed933;}.cls-10{fill:#ffca26;}.cls-11{fill:#ffc524;}.cls-12{fill:#fdb518;}.cls-13{fill:#fdb517;}.cls-14{fill:#faa71a;}.cls-15{fill:#faa819;}.cls-16{fill:#fed831;}.cls-17{fill:#ffcb26;}.cls-18{fill:#fdb81b;}.cls-19{fill:#fba919;}.cls-20{fill:#009444;}.cls-21{fill:#4daf4f;}</style></defs><path class="cls-1" d="M384.82,265.09c2.27-1.72,5.31-.75,7.85-.35,4.7,1.44,9.66,1.83,14.32,3.42.9,3.6,3.34,7.61,1,11.18-2,2.75-5.66,3.49-8.64,4.72-4.84-3.33-9.61-6.79-14.25-10.39C382.22,271.85,381.82,267,384.82,265.09Z"/><path class="cls-2" d="M93,17.08A16.27,16.27,0,0,1,109.57,6.29c5.72.36,10.7,4.05,13.83,8.71,3.94,5.4,7.78,10.87,11.76,16.25-5.56-2.81-12.76-2.38-17.06,2.45-3.65,4.45-1.74,10.68.08,15.48-6.48-4.38-13.09-8.56-19.35-13.26C93.17,31.69,90.49,23.79,93,17.08Z"/><path class="cls-3" d="M391.17,33.53c4.73-6,13.56-8.5,20.51-5a16.3,16.3,0,0,1,7.88,21c-2.54,6.27-8.94,9.36-14.47,12.53-4.62,2.54-9,5.49-13.81,7.73l-.14-.44c.76-4.92,1.63-10.93-2.69-14.56-3.38-4-8.88-1.94-13.12-.92C380.44,47,385.81,40.26,391.17,33.53Z"/><path class="cls-4" d="M118.1,33.7c4.3-4.83,11.5-5.26,17.06-2.45,2.22,3,4.2,6.13,6.58,9-4.08-.46-8.86-2.57-12.58,0-3.61,3.63-3.3,9.27-3.4,14-2.55-1.67-5.2-3.18-7.58-5.1C116.36,44.38,114.45,38.15,118.1,33.7Z"/><path class="cls-5" d="M375.33,53.9c4.24-1,9.74-3.07,13.12.92,4.32,3.63,3.45,9.64,2.69,14.56l-.7,1c-4,2.55-8.22,4.84-12.32,7.28a38.21,38.21,0,0,0-.93-7.55c-1.55-3.66-5.91-4.47-9.22-5.69l-.44-.5c2.28-3.41,5-6.49,7.28-9.92Z"/><path class="cls-6" d="M129.16,40.26c3.72-2.59,8.5-.48,12.58,0,2.28,3.5,4.76,6.85,7.29,10.17A40.53,40.53,0,0,0,141.72,53c-2.45,2.46-3.22,6-4.56,9.09-3.77-2.66-7.74-5-11.4-7.84C125.86,49.53,125.55,43.89,129.16,40.26Z"/><path class="cls-7" d="M366.81,64.82l1.16-.37c3.31,1.22,7.67,2,9.22,5.69a38.21,38.21,0,0,1,.93,7.55c-5.61,3-10.87,6.57-16.62,9.25-3.82,1.77-8.27-2.78-6.42-6.61C358.41,74.78,362.79,69.88,366.81,64.82Z"/><path class="cls-8" d="M141.72,53A40.53,40.53,0,0,1,149,50.41c3.44,5.51,8.08,10.32,10.92,16.18,1.46,4.1-3.71,8.12-7.32,5.75-5.35-3.11-10.28-6.87-15.47-10.22C138.5,59,139.27,55.49,141.72,53Z"/><path class="cls-9" d="M89.74,244.75c4.69.18,9.52-1.74,14.09,0a5.12,5.12,0,0,1,.46,8.57c-4.12,3-8.75,5.11-13.12,7.67-2.24-3-5.13-5.69-6.08-9.38C85,248.56,88,246.82,89.74,244.75Z"/><path class="cls-10" d="M74.13,246.31c5.16-.93,10.43-.79,15.61-1.56-1.71,2.07-4.78,3.81-4.65,6.83,1,3.69,3.84,6.41,6.08,9.38-3.11,1.74-6.14,3.68-9.38,5.25-4.37-.22-9.13-1.8-10.7-6.33C68.28,255.16,72.06,250.45,74.13,246.31Z"/><path class="cls-11" d="M407,268.16c5.69.67,11.07,2.78,16.82,3.17l0,.84c-.17,4.85,2.76,9.95,0,14.48-2.23,4-7,5.42-10.82,7.38-4.56-3.31-9.19-6.53-13.65-10,3-1.23,6.64-2,8.64-4.72C410.33,275.77,407.89,271.76,407,268.16Z"/><path class="cls-12" d="M54.74,248.09c6.37-1.26,12.92-1.33,19.39-1.78-2.07,4.14-5.85,8.85-3,13.57,1.57,4.53,6.33,6.11,10.7,6.33-5.92,3.38-11.81,6.88-17.89,10-6.74.47-14.17-2-17.15-8.53C42.67,260.33,48.15,251.76,54.74,248.09Z"/><path class="cls-13" d="M423.86,286.65c2.74-4.53-.19-9.63,0-14.48,3.66.66,7.75.24,11,2.34,4.88,4.35,8.9,11.41,5.93,17.95-2.53,6.57-9.82,9.13-16.34,9.32-4.22-1.87-7.6-5.2-11.42-7.75C416.9,292.07,421.63,290.69,423.86,286.65Z"/><path class="cls-14" d="M34.49,261.05c2-8.86,11.64-14,20.25-13-6.59,3.67-12.07,12.24-8,19.59,3,6.56,10.41,9,17.15,8.53-4.83,3.21-10.54,5.88-16.49,4.65C38.49,279.52,32.12,269.77,34.49,261.05Z"/><path class="cls-15" d="M434.87,274.51c8.33.08,17.44,4.85,19.46,13.48,2.76,9.49-5,20-14.86,20.23-6.07.55-11.2-3-15.9-6.34l.89-.1c6.52-.19,13.81-2.75,16.34-9.32C443.77,285.92,439.75,278.86,434.87,274.51Z"/><path class="cls-16" d="M231.43,348.8c1.78-3.91,8-3.5,9.26.6,1.39,4.76,1.35,9.85,2.18,14.74-2.59,2.24-5.17,5.59-9,5-3,0-4.7-2.9-6.59-4.78C228.42,359.12,229.31,353.74,231.43,348.8Z"/><path class="cls-17" d="M233.84,369.13c3.86.6,6.44-2.75,9-5,.6,4.72,1.18,9.44,1.66,14.18-3.29,2.83-6.35,6.83-11,7.22-4.94-.57-7.55-5.28-9.55-9.29.4-4.34,2.63-8.3,2.56-12.71l.72.81C229.14,366.23,230.8,369.16,233.84,369.13Z"/><path class="cls-18" d="M224,376.25c2,4,4.61,8.72,9.55,9.29,4.66-.39,7.72-4.39,11-7.22.73,5.42,1.42,10.87,2,16.33-.76,3.89-1.47,8.25-4.6,11a13.68,13.68,0,0,1-15.74,2c-4.77-2.89-6.26-8.74-6.93-13.9A175.71,175.71,0,0,1,224,376.25Z"/><path class="cls-19" d="M219,392.27l.22,1.52c.67,5.16,2.16,11,6.93,13.9a13.68,13.68,0,0,0,15.74-2c3.13-2.78,3.84-7.14,4.6-11,.84,8.94,4.19,19.65-2.6,27.16-6.77,8.24-21.24,6.8-26.24-2.64C212.48,410.65,218.06,401.1,219,392.27Z"/><path class="cls-10" d="M173,95.53c27.41-17.73,61.18-25,93.51-20.77a137.5,137.5,0,0,1,84.26,43.58c24.59,26.65,37.67,63.33,35.94,99.51-.81,21.74-8.68,42.79-20.76,60.75-13.89,21.25-32.67,38.8-46.37,60.17-7.94,12.3-12.59,26.86-11.87,41.59q-59.34,0-118.69,0a68,68,0,0,0-5.26-28.93c-6.85-16-18.45-29.2-29.45-42.41-13.86-16.54-27.88-33.54-36.05-53.76-10.76-25.75-10.54-55.06-3.1-81.65A137.31,137.31,0,0,1,173,95.53ZM201.8,132c-12.57,31.24-22.22,64.32-22.49,98.22,0,18.33,3.85,38.3,17.6,51.5,13,13.06,35.24,19.27,51.56,8.7,1.71,14.15-3.95,27.56-9,40.44q14.87,5.33,29.67,10.85c5.93-17.71,6.91-36.78,4.42-55.22-4.46-33.24-18.46-64.41-35.74-92.88,28.36,20.42,47.36,51.82,57.21,85,4.4-3.55,7.95-8,11.57-12.26C316.29,253.94,319.31,237.3,317,222c-2.73-18.46-12.84-35.18-26.11-48.05C266.69,150.69,234.13,138.54,201.8,132Z"/><path class="cls-20" d="M201.8,132c32.33,6.51,64.89,18.66,89,41.88C304.11,186.78,314.22,203.5,317,222c2.36,15.34-.66,32-10.31,44.39-3.62,4.3-7.17,8.71-11.57,12.26-9.85-33.15-28.85-64.55-57.21-85,17.28,28.47,31.28,59.64,35.74,92.88,2.49,18.44,1.51,37.51-4.42,55.22q-14.81-5.5-29.67-10.85c5-12.88,10.67-26.29,9-40.44-16.32,10.57-38.55,4.36-51.56-8.7-13.75-13.2-17.59-33.17-17.6-51.5C179.58,196.35,189.23,163.27,201.8,132Z"/><path class="cls-20" d="M189,380.36q59.34,0,118.69,0c0,3.29,0,6.57,0,9.84Q248.39,398.74,189,407C189,398.14,189,389.25,189,380.36Z"/><path class="cls-20" d="M189,426.79c39.62-5.4,79.19-11.1,118.78-16.77,0,6.62-.06,13.27,0,19.89q-57.71,7.8-115.36,15.87A44.27,44.27,0,0,1,189,426.79Z"/><path class="cls-20" d="M231.65,460.32c23.25-2.94,46.38-7,69.73-9.1a43.47,43.47,0,0,1-25.12,17.19,29.44,29.44,0,0,1-26.58,20.7c-13.05.84-24.89-8.68-29.1-20.67a52.52,52.52,0,0,1-10.77-4.16C216.86,461.86,224.32,461.3,231.65,460.32Z"/><path class="cls-21" d="M189,407q59.4-8.17,118.75-16.82V410c-39.59,5.67-79.16,11.37-118.78,16.77C189.05,420.19,189,413.61,189,407Z"/><path class="cls-21" d="M192.44,445.78q57.66-8.05,115.36-15.87a34.7,34.7,0,0,1-6.42,21.31c-23.35,2.08-46.48,6.16-69.73,9.1-7.33,1-14.79,1.54-21.84,4A40.44,40.44,0,0,1,192.44,445.78Z"/></svg>