<svg id="Layer_1" data-name="Layer 1" xmlns="http://www.w3.org/2000/svg" viewBox="0 0 500 500"><defs><style>.cls-1{fill:#fec01e;}.cls-2{fill:#9fdbec;}.cls-3{fill:#81d2ea;}.cls-4{fill:#58c9e9;}.cls-5{fill:#d4eef7;}</style></defs><path class="cls-1" d="M33.84,5.62h4.34A31.11,31.11,0,0,1,61.57,19.23,30.53,30.53,0,0,1,27.9,65.55C15.73,62.32,6.61,51,5.62,38.47V34.22C6.43,19.4,19.06,6.67,33.84,5.62Z"/><path class="cls-1" d="M117.79,5.62h287a31.11,31.11,0,0,1,20.95,10.46A30.52,30.52,0,0,1,411,65.55c-7.5,2.19-15.44.24-23,2a30.53,30.53,0,0,0,6.89,60.23c22.32.16,44.64-.16,66.95.13,17.26.44,32.14,15.78,32.52,33v3.39c-.86,12.95-9.4,25-21.52,29.75-10.38,4.35-21.81,1.55-32.64,2.92-12.38,1.83-22.32,13.47-22.19,26-.43,12.4,9.05,24.15,21.21,26.45,10.19,1.59,20.6-.42,30.79,1.25,13.1,2.48,23.33,14.38,24.35,27.61v4.28c-.85,14.23-12.6,26.91-26.88,28.29-13.33.79-26.71-.22-40.05.46a19,19,0,0,0-6.33,36c4.65,2.42,10.05,1.71,15.08,2.19a30.47,30.47,0,0,1-1.41,60.78c-16.14.33-32.29-.2-48.42.22-8.54.28-15.47,8.92-14,17.32a15.27,15.27,0,0,0,15.49,13c6.5-.09,13.3.87,18.65,4.84a26.86,26.86,0,0,1,9.62,31.7c-3.56,9.45-12.86,16.12-22.86,17H76.59a27.2,27.2,0,0,1-20.16-11.19A26.76,26.76,0,0,1,77.94,440.9a19.32,19.32,0,0,0,17.32-10.68,19.12,19.12,0,0,0-6.65-24.31c-6-4.17-13.6-3-20.46-3.13-7.18-.14-14.39.44-21.53-.47C33.18,400.45,22,388.52,21.05,375c-1.51-13.35,7.05-26.86,19.65-31.41,10.3-4.11,21.86.33,32.15-3.88a26.72,26.72,0,0,0-4.59-51c-12.77-2-26.33,1.74-38.62-3.31-13.37-5.15-22.84-18.36-24-32.58v-5.12c.88-16.79,13.91-32,30.47-35.12,13.94-1.93,28.11.14,42.09-1.18,10.23-1.51,18.61-10.9,19-21.23a23.16,23.16,0,0,0-14.68-22.72c-9.49-3.46-20.07.56-29.47-3.38C41.62,159.79,34.29,147,36.54,134.9c1.79-12.39,13.34-22.41,25.87-22.32q34.82-.06,69.66,0c13.87,1.83,27.61-10.31,26.23-24.49-.55-10.26-8.85-19.54-19-21-8.06-1-16.21.34-24.25-.83a30.51,30.51,0,0,1-18-50A31.36,31.36,0,0,1,117.79,5.62ZM205,77.17c-17.49,29.57-35.65,58.81-51.56,89.29C139.5,193,126,219.88,116.19,248.3c-5.52,16.15-10.06,32.82-11.1,49.94A142.2,142.2,0,0,0,112,349.46a144.2,144.2,0,0,0,69.85,82.38c28,14.87,60.79,19.92,92,14.9C309.19,441.37,342,422,364.15,394a141.81,141.81,0,0,0,31-87.14c.44-16.8-3.28-33.36-8.22-49.32-4.17-12.79-8.87-25.4-14.27-37.72-21.89-50-50.57-96.57-78.46-143.36-8.25-14.21-23.72-23.47-40-24.77C234.64,49.22,214.55,60.14,205,77.17Z"/><path class="cls-1" d="M450.25,447.37a26.75,26.75,0,0,1,44.13,19v2.72c-.58,13.17-11.85,24.52-25,25.27h-3.45c-10.74-.72-20.65-8.31-23.76-18.67A26.81,26.81,0,0,1,450.25,447.37Z"/><path class="cls-2" d="M205,77.17c9.56-17,29.65-27.95,49.16-25.52,4.42,3.6,8.92,7.69,10.75,13.27,3,8-1.54,16.88-8,21.66s-15,3.38-22.52,3.48c-7.29.1-15.42-1.24-21.79,3.17-11.13,6.87-10.32,26.21,1.5,32,6.92,3.11,15.64,1.42,21.51,7,8.27,6.43,9.28,19.72,2.19,27.4-4.9,6-13.14,7-20.39,7-21.32-.1-42.65,0-64-.08C169.34,136,187.5,106.74,205,77.17Z"/><path class="cls-2" d="M280.21,128c11.18-3.2,23.71,6.92,23.43,18.46a18.91,18.91,0,0,1-13.56,18.75c-11.39,4.32-24.74-5.6-25.08-17.52C264.63,138.58,271.13,129.7,280.21,128Z"/><path class="cls-3" d="M254.15,51.65c16.3,1.3,31.77,10.56,40,24.77,27.89,46.79,56.57,93.36,78.46,143.36,5.4,12.32,10.1,24.93,14.27,37.72-17.68.66-35.37.19-53.06.29-7.87.1-16.95-1.33-23.3,4.49-9.42,7.17-9,23.31,1,29.82,9,6.79,21.91.34,30.55,7.87,9,6.78,9.43,21.5.93,28.89-6.5,6.53-16.42,4.46-24.72,4.84-9.48.37-19.76-1.63-28.53,2.94-11,6.13-12.64,23.46-2.61,31.25,6.83,6.49,17.88,2.82,24.76,9.17,9.38,7.82,7.82,25.17-3.34,30.59-10,4.92-21.62-.12-31.84,3.76a19.88,19.88,0,0,0-11.64,22c.74,5.58,4.75,9.8,8.81,13.35-31.23,5-64.06,0-92-14.9A144.2,144.2,0,0,1,112,349.46a142.2,142.2,0,0,1-6.92-51.22c1-17.12,5.58-33.79,11.1-49.94,9.76-28.42,23.31-55.3,37.24-81.84,21.31,0,42.64,0,64,.08,7.25,0,15.49-1,20.39-7,7.09-7.68,6.08-21-2.19-27.4-5.87-5.53-14.59-3.84-21.51-7-11.82-5.77-12.63-25.11-1.5-32,6.37-4.41,14.5-3.07,21.79-3.17,7.53-.1,16,1.19,22.52-3.48s11-13.7,8-21.66C263.07,59.34,258.57,55.25,254.15,51.65ZM280.21,128c-9.08,1.72-15.58,10.6-15.21,19.69.34,11.92,13.69,21.84,25.08,17.52a18.91,18.91,0,0,0,13.56-18.75C303.92,134.9,291.39,124.78,280.21,128ZM260.54,257.86c-9.84.37-18.38,9.3-17.9,19.24-.34,9.57,8,17.88,17.35,18.49,10,1.06,19.63-7.16,20.23-17.17C281.63,267.35,271.57,257.12,260.54,257.86ZM145.2,281.63a15.2,15.2,0,0,0-9.59,12.49c-1.27,8.66,6.31,17.06,15,16.92,9.21.33,17.08-9,15.07-18.05C164.25,283.9,153.68,278,145.2,281.63Zm15.74,45.66c-7.64,2.53-12.3,11.84-9.2,19.4,16.45,38.67,57.88,64.63,99.77,63.47,9.29-.59,16.08-11,12.88-19.75-2-6.77-8.95-10.83-15.78-10.56-26.29-.27-51.92-15-65.16-37.71-1.93-3.28-3.4-6.86-5.63-10A15.19,15.19,0,0,0,160.94,327.29Z"/><path class="cls-4" d="M260.54,257.86c11-.74,21.09,9.49,19.68,20.56-.6,10-10.24,18.23-20.23,17.17-9.36-.61-17.69-8.92-17.35-18.49C242.16,267.16,250.7,258.23,260.54,257.86Z"/><path class="cls-4" d="M310.54,262.28c6.35-5.82,15.43-4.39,23.3-4.49,17.69-.1,35.38.37,53.06-.29,4.94,16,8.66,32.52,8.22,49.32a141.81,141.81,0,0,1-31,87.14c-22.12,28-55,47.41-90.27,52.78-4.06-3.55-8.07-7.77-8.81-13.35a19.88,19.88,0,0,1,11.64-22c10.22-3.88,21.87,1.16,31.84-3.76,11.16-5.42,12.72-22.77,3.34-30.59-6.88-6.35-17.93-2.68-24.76-9.17-10-7.79-8.36-25.12,2.61-31.25,8.77-4.57,19.05-2.57,28.53-2.94,8.3-.38,18.22,1.69,24.72-4.84,8.5-7.39,8.09-22.11-.93-28.89-8.64-7.53-21.59-1.08-30.55-7.87C301.59,285.59,301.12,269.45,310.54,262.28Z"/><path class="cls-5" d="M145.2,281.63c8.48-3.61,19.05,2.27,20.47,11.36,2,9-5.86,18.38-15.07,18.05-8.68.14-16.26-8.26-15-16.92A15.2,15.2,0,0,1,145.2,281.63Z"/><path class="cls-5" d="M160.94,327.29a15.19,15.19,0,0,1,16.88,4.89c2.23,3.1,3.7,6.68,5.63,10,13.24,22.75,38.87,37.44,65.16,37.71,6.83-.27,13.81,3.79,15.78,10.56,3.2,8.76-3.59,19.16-12.88,19.75-41.89,1.16-83.32-24.8-99.77-63.47C148.64,339.13,153.3,329.82,160.94,327.29Z"/></svg>