<svg id="Layer_1" data-name="Layer 1" xmlns="http://www.w3.org/2000/svg" viewBox="0 0 500 500"><defs><style>.cls-1{fill:#fdf1d6;}.cls-2{fill:#4084c5;}.cls-3{fill:#aee1f5;}.cls-4{fill:#94d9f2;}.cls-5{fill:#fbe9d9;}.cls-6{fill:#759bd1;}</style></defs><path class="cls-1" d="M156.14,119.82a31.08,31.08,0,0,1,25.07-13q45-.06,90.1,0a31.15,31.15,0,0,1,24.31,11.58,31.53,31.53,0,0,1,6.74,22.21q-76,0-151.89,0A31.5,31.5,0,0,1,156.14,119.82Z"/><path class="cls-1" d="M51.08,203.26c8.49-1.3,17.13-.41,25.68-.62-.43,20.64,0,41.3-.22,61.94-10.88-.63-22.56,1.87-32.72-3.2A31,31,0,0,1,26.6,230.84C27.53,217.57,38,205.78,51.08,203.26Z"/><path class="cls-1" d="M319.46,225.11c8.06,0,16.11,0,24.18,0C361.3,223.42,377,240.7,375.59,258c-.59,15.08-13.69,28.29-28.77,29-9.12.22-18.24,0-27.36.1Q319.52,256.07,319.46,225.11Z"/><path class="cls-1" d="M39.94,319a25.43,25.43,0,0,1,21.83-15c5.08-.15,10.16,0,15.25,0,.3,16.89.06,33.8.13,50.69-5.12,0-10.25.11-15.37-.08A25.32,25.32,0,0,1,39.94,319Z"/><path class="cls-1" d="M319.34,326.53c10.86,0,21.7-.07,32.56.05,13.09.48,24.27,12.57,23.74,25.66.1,12.86-11,24.46-23.89,24.88-10.8.13-21.6,0-32.41.06Q319.34,351.85,319.34,326.53Z"/><path class="cls-1" d="M39.7,413.06a22.45,22.45,0,0,1,19.94-13.29c5.83-.07,11.66,0,17.49,0-.49,7,1,14.84,6.87,19.35,3.94,3.48,9.46,3.25,14.37,3.16q71.08,0,142.16,0c.2,12.11-10.61,22.91-22.74,22.55q-78.54,0-157.11,0a22.56,22.56,0,0,1-21-31.74Z"/><path class="cls-2" d="M77.17,158.48c-.1-8.33,6-17.41,14.84-17.77,19.49-.14,39,0,58.46-.06q75.94-.08,151.89,0a15.77,15.77,0,0,1,12.73,5.49l-.5.52c-11,11.25-22.2,22.27-33.31,33.39q-64.33-.17-128.69,0c-19.83-.39-39.66-.19-59.49-.13-7.58,0-13.59,6.07-15.84,12.91C77,181.36,77.19,169.91,77.17,158.48Z"/><path class="cls-3" d="M77.26,192.78c2.25-6.84,8.26-12.9,15.84-12.91,19.83-.06,39.66-.26,59.49.13,3.85,3.56,9.1,7.1,8.89,13,1,7.7-5.81,14.95-13.42,15.16-9.56.56-19.15,0-28.72.22-7.4-.31-14.27,6.54-13.9,14-.34,5.55,3.48,10.59,8.33,12.93,5.61,2,11.94,0,17.44,2.52,6.74,3.14,9.93,12.12,6.49,18.76a13.78,13.78,0,0,1-13.18,7.94c-15.85.08-31.69-.09-47.54.09h-.44c.24-20.64-.21-41.3.22-61.94A98.34,98.34,0,0,1,77.26,192.78Z"/><path class="cls-3" d="M175.19,236.45c8.08-.49,15.41,7.21,14.5,15.27-.52,7.64-8.21,14-15.85,12.55-7.43-.72-13.3-8.44-12-15.8A13.92,13.92,0,0,1,175.19,236.45Z"/><path class="cls-4" d="M152.59,180q64.35,0,128.69,0c-11.75,11.86-23.63,23.58-35.36,35.46-2.09,7-3.7,14.24-5.45,21.38-.94,4-1.89,8-3.16,11.93a66.66,66.66,0,0,0-2.79,10.44c7.57-1.79,15.16-3.48,22.58-5.79,7-2.17,14.27-3.37,21.23-5.67,13.77-13.61,27.4-27.37,41.12-41,0,6.12,0,12.24,0,18.36q0,31,0,61.95c0,13.16-.16,26.31-.12,39.47q0,25.32,0,50.65c-.07,9.53.16,19.08-.11,28.61-.33,7.75-5.91,16.37-14.35,16.44-21.45,0-42.9,0-64.35,0q-71.09,0-142.16,0c-4.91.09-10.43.32-14.37-3.16-5.86-4.51-7.36-12.35-6.87-19.35.05-15,0-30.06,0-45.07-.07-16.89.17-33.8-.13-50.69-.09-13.14,0-26.27,0-39.41,15.85-.18,31.69,0,47.54-.09a13.78,13.78,0,0,0,13.18-7.94c3.44-6.64.25-15.62-6.49-18.76-5.5-2.5-11.83-.56-17.44-2.52-4.85-2.34-8.67-7.38-8.33-12.93-.37-7.42,6.5-14.27,13.9-14,9.57-.22,19.16.34,28.72-.22,7.61-.21,14.39-7.46,13.42-15.16C161.69,187.1,156.44,183.56,152.59,180Zm22.6,56.45a13.92,13.92,0,0,0-13.33,12c-1.32,7.36,4.55,15.08,12,15.8,7.64,1.44,15.33-4.91,15.85-12.55C190.6,243.66,183.27,236,175.19,236.45Z"/><path class="cls-5" d="M328.91,55.81c16.74-2.53,35.42,2.65,45.67,16.8,10,12.86,10.91,29.82,11.14,45.44-.44,5.28,2.79,11.09,8.49,11.53,15,1.43,30.08-.82,45,1.08,20,3.14,35.7,22.78,34.24,43-1.66,21-4.18,42-6.13,63.05-1.33,11.9-1.43,24.35-6.67,35.4-8.54,18.93-28.34,32.13-49.15,32.39-46.53.26-93.08-.16-139.63.19-.31-52.48.53-105-.33-157.41,12.71-.44,25.49.56,38.19-.42,6.33-.4,8.73-7.16,10.11-12.36,3.57-14.43,5.81-29.55,3.35-44.35-.89-7.74-3.39-15.16-4.4-22.86-.58-3.73,2.27-6.77,3.75-9.95C324.68,56.91,326.79,56.39,328.91,55.81Z"/><path class="cls-6" d="M198.24,180.7c-.5-17,14.39-32.53,31.25-33.26,13.89-.68,27.78,0,41.66-.28.86,52.45,0,104.93.34,157.42-14-.09-28.11.54-42.13-.25-16.63-1.2-31.1-16-31.08-32.82C198.24,241.25,198.33,211,198.24,180.7Z"/></svg>