<svg id="Layer_1" data-name="Layer 1" xmlns="http://www.w3.org/2000/svg" viewBox="0 0 500 500"><defs><style>.cls-1{fill:#e6f5f8;}.cls-2{fill:#d3e6ed;}.cls-3{fill:#fbe9d9;}.cls-4{fill:#759bd1;}</style></defs><path class="cls-1" d="M15.28,80c1.76-16.8,17.11-30.63,34-30.67q200-.06,400.06,0a35.08,35.08,0,0,1,20.2,6.27c3.6,6.82,7,14.31,6,22.23a25.28,25.28,0,0,1-13.63,20.78c-4.75,2.45-10.21,2.57-15.42,2.65-38.2-.19-76.39,0-114.59-.08-21.24-.22-42.59,1.31-63.34,6.06-8.32,2-17.1,3.11-24.41,7.91-1.65.45-3.3.86-5,1.23-2.48.55-5,1-7.41,1.8a258.5,258.5,0,0,0-116.5,89.69A255.76,255.76,0,0,0,67.22,346.64c-.4,7.73.53,15.93-2.9,23.14-4.11,8.63-13.67,13.85-23.09,13.83-7.59.37-14.46-3.42-20.69-7.33a36.57,36.57,0,0,1-5.26-13.89Z"/><path class="cls-2" d="M469.54,55.56a34.91,34.91,0,0,1,15.18,27V359.28c-.35,17.77-16.17,33.42-34,33.22q-109.91.06-219.83,0c-2.42.08-5.11,0-7.17,1.51-2.92,2-3.46,5.75-4.56,8.84-6,20-20.32,37.1-38.17,47.84a110.29,110.29,0,0,1-51.07,15.36c-6.23.37-10.29-7.63-6.53-12.52,10.44-15.6,17.46-33.71,18.79-52.5a7.92,7.92,0,0,0-8-8.42c-25.07-.21-50.15,0-75.24-.09-5.9-.08-11.92.45-17.71-1.09a34.57,34.57,0,0,1-20.65-15.15c6.23,3.91,13.1,7.7,20.69,7.33,9.42,0,19-5.2,23.09-13.83,3.43-7.21,2.5-15.41,2.9-23.14a255.76,255.76,0,0,1,48.06-138.81,258.5,258.5,0,0,1,116.5-89.69c2.43-.76,4.93-1.25,7.41-1.8-1.16,2.48-3.38,4.86-2.93,7.78.79,6,2.74,11.82,3.44,17.86,1.92,11.58.17,23.39-2.62,34.67-1.08,4.06-3,9.34-7.9,9.66-9.93.76-19.92,0-29.85.33-10.85.21-21.71-.32-32.56.21-13.18.58-24.83,12.72-24.43,26,.07,23.65,0,47.33,0,71,0,13.14,11.3,24.71,24.29,25.65,11,.62,22,.13,32.93.19,36.38-.27,72.76.06,109.13-.15,16.27-.2,31.74-10.52,38.42-25.31,4.09-8.64,4.17-18.37,5.21-27.68,1.53-16.43,3.49-32.83,4.79-49.27,1.15-15.83-11.09-31.19-26.76-33.64-11.67-1.49-23.49.27-35.18-.85-4.45-.34-7-4.88-6.63-9-.18-12.21-.88-25.46-8.71-35.52-8-11.05-22.61-15.11-35.7-13.13,7.31-4.8,16.09-6,24.41-7.91,20.75-4.75,42.1-6.28,63.34-6.06,38.2,0,76.39-.11,114.59.08,5.21-.08,10.67-.2,15.42-2.65a25.28,25.28,0,0,0,13.63-20.78C476.52,69.87,473.14,62.38,469.54,55.56Z"/><path class="cls-3" d="M244.16,115.11c13.09-2,27.69,2.08,35.7,13.13,7.83,10.06,8.53,23.31,8.71,35.52-.35,4.13,2.18,8.67,6.63,9,11.69,1.12,23.51-.64,35.18.85,15.67,2.45,27.91,17.81,26.76,33.64-1.3,16.44-3.26,32.84-4.79,49.27-1,9.31-1.12,19-5.21,27.68C340.46,299,325,309.32,308.72,309.52c-36.37.21-72.75-.12-109.13.15-.25-41,.41-82-.26-123,9.93-.35,19.92.43,29.85-.33,4.95-.32,6.82-5.6,7.9-9.66,2.79-11.28,4.54-23.09,2.62-34.67-.7-6-2.65-11.84-3.44-17.86-.45-2.92,1.77-5.3,2.93-7.78C240.86,116,242.51,115.56,244.16,115.11Z"/><path class="cls-4" d="M142.34,212.85c-.4-13.28,11.25-25.42,24.43-26,10.85-.53,21.71,0,32.56-.21.67,41,0,82,.26,123-11-.06-22,.43-32.93-.19-13-.94-24.31-12.51-24.29-25.65C142.34,260.18,142.41,236.5,142.34,212.85Z"/></svg>