<?xml version="1.0" encoding="utf-8"?>
<!-- Generator: Adobe Illustrator 26.0.1, SVG Export Plug-In . SVG Version: 6.00 Build 0)  -->
<svg version="1.1" id="Layer_1" xmlns="http://www.w3.org/2000/svg" xmlns:xlink="http://www.w3.org/1999/xlink" x="0px" y="0px"
	 viewBox="0 0 350.66 71.02" style="enable-background:new 0 0 350.66 71.02;" xml:space="preserve">
<style type="text/css">
	.st0{fill:#EF3E24;}
	.st1{fill:#26BEC5;}
	.st2{fill:#FFFFFF;}
	.st3{fill:#E5BC21;}
</style>
<g>
	<path class="st0" d="M116.83,1.39c-4.42,0.68-8.6,2.61-11.99,5.53c-6.09,5.24-9.18,12.7-8.63,20.59
		c0.36,5.26,2.39,10.07,5.55,13.92l-2.8,2.81l-1.46-1.46L76.63,63.73c-0.79,0.79-0.79,2.07,0,2.86l3.82,3.84
		c0.79,0.79,2.06,0.79,2.85,0l20.87-20.95l-0.99-0.99l2.92-2.93c3.66,2.74,8.08,4.49,12.89,4.83c0.59,0.04,1.18,0.06,1.76,0.06
		c6.94,0,13.43-2.86,18.21-8.12c3.48-3.84,5.67-8.74,6.21-13.9C146.85,12.32,133-1.12,116.83,1.39z M135.46,26.83
		c-0.51,7.32-6.39,13.22-13.68,13.73c-4.14,0.29-8.09-1.11-11.12-3.95c-2.99-2.8-4.71-6.75-4.71-10.84
		c0-8.18,6.63-14.83,14.77-14.83c4.08,0,8.01,1.72,10.8,4.73C134.36,18.7,135.75,22.67,135.46,26.83z"/>
	<path class="st1" d="M342.58,51.15H218.64c-5.32,0-9.18-5.05-7.8-10.18l8.98-33.35c0.95-3.53,4.15-5.98,7.8-5.98h114.96
		c4.46,0,8.08,3.62,8.08,8.08v33.35C350.66,47.53,347.05,51.15,342.58,51.15z"/>
	<path class="st0" d="M342.58,51.15H218.64c-5.32,0-9.18-5.05-7.8-10.18l8.98-33.35c0.95-3.53,4.15-5.98,7.8-5.98h114.96
		c4.46,0,8.08,3.62,8.08,8.08v33.35C350.66,47.53,347.05,51.15,342.58,51.15z"/>
	<path class="st2" d="M231.97,42.3c-3.3,0-6.06-0.69-8.26-2.07c-2.2-1.37-3.68-3.24-4.43-5.58l7.43-4.3
		c1.01,2.58,2.84,3.87,5.48,3.87c1.97,0,2.96-0.52,2.96-1.56c0-0.29-0.07-0.55-0.22-0.78c-0.15-0.23-0.42-0.43-0.83-0.61
		c-0.41-0.17-0.76-0.31-1.06-0.41c-0.3-0.1-0.83-0.25-1.59-0.46c-0.75-0.2-1.32-0.36-1.7-0.48c-6.06-1.83-9.09-5.09-9.09-9.78
		c0-2.78,1.01-5.09,3.02-6.91c2.01-1.83,4.66-2.74,7.93-2.74c2.58,0,4.89,0.61,6.93,1.82c2.04,1.22,3.54,2.97,4.5,5.26l-7.22,4.22
		c-0.84-2.14-2.23-3.22-4.17-3.22c-0.75,0-1.33,0.15-1.72,0.46c-0.39,0.31-0.59,0.69-0.59,1.15c0,0.64,0.34,1.13,1.02,1.48
		c0.68,0.35,1.99,0.8,3.93,1.35c1.45,0.43,2.64,0.85,3.56,1.24c0.93,0.39,1.9,0.94,2.91,1.65s1.78,1.62,2.28,2.74
		c0.51,1.12,0.76,2.43,0.76,3.93c0,3.1-1.06,5.5-3.19,7.19C238.51,41.45,235.62,42.3,231.97,42.3z"/>
	<path class="st2" d="M262.7,42.3c-4.58,0-8.37-1.52-11.39-4.56c-3.01-3.04-4.52-6.82-4.52-11.35c0-4.52,1.51-8.3,4.52-11.34
		c3.02-3.04,6.81-4.56,11.39-4.56c2.81,0,5.41,0.67,7.78,2s4.23,3.13,5.56,5.39l-7.56,4.35c-0.49-0.98-1.26-1.77-2.3-2.35
		c-1.04-0.58-2.2-0.87-3.48-0.87c-2.14,0-3.88,0.7-5.22,2.09c-1.33,1.39-2,3.16-2,5.3c0,2.15,0.67,3.91,2,5.3s3.07,2.09,5.22,2.09
		c1.31,0,2.47-0.29,3.5-0.87s1.79-1.38,2.28-2.39l7.56,4.35c-1.33,2.29-3.19,4.1-5.56,5.43C268.1,41.63,265.51,42.3,262.7,42.3z"/>
	<path class="st2" d="M297.47,41.61l-1.04-3.91h-8.78l-1.04,3.91h-9.35l9.7-30.43h10.17l9.69,30.43H297.47z"/>
	<path class="st2" d="M341.94,11.18v30.43h-8.69V26.78l-6.78,11.39h-0.78l-6.78-11.39v14.82h-8.69V11.18h8.69l7.17,12.39l7.17-12.39
		H341.94z"/>
	<g>
		<path id="Exclamation_mark_00000136398719588214214540000009341971730531893676_" class="st0" d="M294.97,17.4L294.97,17.4
			l-1.43,9.89h0c-0.1,0.67-0.58,1.19-1.43,1.19c-0.85,0-1.33-0.51-1.43-1.19h0l-1.43-9.89h0c-0.02-0.17-0.04-0.35-0.04-0.53
			c0-1.6,0.98-2.9,2.9-2.9c1.93,0,2.9,1.3,2.9,2.9C295.01,17.06,294.99,17.23,294.97,17.4z M292.1,30.42c-1.5,0-2.26,1.01-2.26,2.26
			c0,1.25,0.76,2.26,2.26,2.26c1.5,0,2.26-1.01,2.26-2.26C294.36,31.43,293.6,30.42,292.1,30.42z"/>
	</g>
	<path d="M51.06,22.88v4.24c0,7.39-2.3,13.29-6.89,17.69c-4.59,4.4-10.42,6.6-17.48,6.6c-7.68,0-14.04-2.47-19.1-7.42
		C2.53,39.06,0,32.98,0,25.78s2.51-13.3,7.52-18.29C12.54,2.5,18.67,0,25.92,0c4.61,0,8.84,1.04,12.68,3.11
		c3.84,2.07,6.82,4.8,8.93,8.19l-9.61,5.51c-1.08-1.69-2.7-3.08-4.84-4.17c-2.14-1.08-4.56-1.62-7.24-1.62
		c-4.19,0-7.66,1.39-10.42,4.17c-2.75,2.78-4.13,6.33-4.13,10.67c0,4.28,1.41,7.78,4.24,10.49c2.83,2.71,6.59,4.06,11.3,4.06
		c6.54,0,10.76-2.54,12.64-7.63H26.27v-9.89H51.06z"/>
	<path d="M66.66,39.55h17.66v10.88H55.36V0.99h11.3V39.55z"/>
	<path d="M157.61,50.43L143.98,0.99h11.87l8.54,34.61l9.54-34.61h9.13l9.54,34.62l8.59-34.62h11.86l-13.63,49.44h-12.85l-8.08-29.31
		l-8.08,29.31H157.61z"/>
	<g>
		<path class="st3" d="M122.39,18.14l1.4,2.91c0.74,1.53,1.9,2.82,3.34,3.72l2.42,1.5l-2.42,1.5c-1.45,0.9-2.61,2.19-3.34,3.72
			l-1.4,2.91l-1.4-2.91c-0.74-1.53-1.9-2.82-3.34-3.72l-2.42-1.5l2.42-1.5c1.45-0.9,2.61-2.19,3.34-3.72L122.39,18.14z"/>
		<path class="st3" d="M115.57,29.27l0.43,0.89c0.22,0.47,0.58,0.86,1.02,1.13l0.74,0.46l-0.74,0.46c-0.44,0.27-0.79,0.67-1.02,1.13
			l-0.43,0.89l-0.43-0.89c-0.22-0.47-0.58-0.86-1.02-1.13l-0.74-0.46l0.74-0.46c0.44-0.27,0.79-0.67,1.02-1.13L115.57,29.27z"/>
		<path class="st3" d="M115.21,17l0.65,1.34c0.34,0.71,0.87,1.3,1.54,1.71l1.11,0.69l-1.11,0.69c-0.67,0.41-1.2,1.01-1.54,1.71
			l-0.65,1.34l-0.65-1.34c-0.34-0.71-0.87-1.3-1.54-1.71l-1.11-0.69l1.11-0.69c0.67-0.41,1.2-1.01,1.54-1.71L115.21,17z"/>
	</g>
</g>
</svg>
