<svg id="Layer_1" data-name="Layer 1" xmlns="http://www.w3.org/2000/svg" viewBox="0 0 400 400"><defs><style>.cls-1{fill:#beddf4;}.cls-2{fill:#7a5547;}.cls-3{fill:#faa947;}.cls-4{fill:#ee8d3b;}.cls-5{fill:#372f8a;}.cls-6{fill:#664a9e;}</style></defs><path class="cls-1" d="M79.87,50.23A193.67,193.67,0,0,1,387,255.43c-11.53,40.33-36.92,76.22-70.35,101.43-1.42-19.52-8.61-38.79-21.51-53.63-9.92-11.74-22.92-20.45-36.69-27.06a106.41,106.41,0,0,0-18.65-6.64c0-7.41-.13-14.82,0-22.21a67.92,67.92,0,0,0,28.49-46.49c4.92-2,9.21-6.19,9.94-11.66,1-4.67-1.1-9.15-3.85-12.76,1.42-1.45,2.8-2.93,4.19-4.43,0-15.19-.46-30.72-5.59-45.18-3.84-11.13-10.83-21.47-20.84-27.89-6.07-4.12-13.11-6.41-20.19-8.08-2.6-5.16-5.14-10.34-7.77-15.47-15.34.32-31.16-1.43-46,3.54C146.54,89,124,121,123.58,154c0,5.94-.24,11.88.07,17.82a24.23,24.23,0,0,0,4,4.58c-3.12,3.89-5.12,9-3.62,14,1.09,5,5.2,8.44,9.67,10.41a67.77,67.77,0,0,0,28.49,46.45c.15,7.41,0,14.81,0,22.22a111.69,111.69,0,0,0-18.67,6.63c-18.73,8.83-36,22.14-46.22,40.45a94.62,94.62,0,0,0-12,40.28C58.72,336.6,36.94,309.8,23.57,279a193.54,193.54,0,0,1,56.3-228.8Z"/><path class="cls-2" d="M178.22,78.9c14.82-5,30.64-3.22,46-3.54,2.63,5.13,5.17,10.31,7.77,15.47,7.08,1.67,14.12,4,20.19,8.08,10,6.42,17,16.76,20.84,27.89,5.13,14.46,5.58,30,5.59,45.18-1.39,1.5-2.77,3-4.19,4.43-2.19,2.15-4.38,4.27-6.51,6.46-2.89,2.92-5.79,5.82-8.73,8.69-.1-12.91,0-25.81-.07-38.72-9-9.65-18-19.37-27.08-29-29.71,9.62-59.36,19.39-89.06,29-.13,12.89,0,25.79-.07,38.68-2.92-2.87-5.8-5.76-8.68-8.66-2.15-2.19-4.34-4.36-6.54-6.49a24.23,24.23,0,0,1-4-4.58c-.31-5.94-.06-11.88-.07-17.82C124,121,146.54,89,178.22,78.9Z"/><path class="cls-2" d="M167.53,173.3c6.66-3.81,15.68,2.76,14,10.27-.87,7.16-10.5,10.66-15.79,5.81C160.41,185.3,161.49,176.12,167.53,173.3Z"/><path class="cls-2" d="M225.64,173.3c6.23-3.53,14.77,1.93,14.12,9.08,0,7.38-9.46,12-15.27,7.49C218.57,186.08,219.28,176.26,225.64,173.3Z"/><path class="cls-3" d="M143,152.88c29.7-9.61,59.35-19.38,89.06-29,9.09,9.59,18.05,19.31,27.08,29,.12,12.91,0,25.81.07,38.72,2.94-2.87,5.84-5.77,8.73-8.69a55,55,0,0,1,.42,18,67.92,67.92,0,0,1-28.49,46.49c-22.62,16-55,16-77.62,0a67.77,67.77,0,0,1-28.49-46.45c-.63-6-.94-12,.49-17.93,2.88,2.9,5.76,5.79,8.68,8.66C143,178.67,142.82,165.77,143,152.88Zm24.58,20.42c-6,2.82-7.12,12-1.8,16.08,5.29,4.85,14.92,1.35,15.79-5.81C183.21,176.06,174.19,169.49,167.53,173.3Zm58.11,0c-6.36,3-7.07,12.78-1.15,16.57,5.81,4.51,15.29-.11,15.27-7.49C240.41,175.23,231.87,169.77,225.64,173.3Z"/><path class="cls-4" d="M124,190.42c-1.5-5,.5-10.12,3.62-14,2.2,2.13,4.39,4.3,6.54,6.49-1.43,5.89-1.12,12-.49,17.93C129.24,198.86,125.13,195.38,124,190.42Z"/><path class="cls-4" d="M267.89,182.87c2.13-2.19,4.32-4.31,6.51-6.46,2.75,3.61,4.85,8.09,3.85,12.76-.73,5.47-5,9.62-9.94,11.66A55,55,0,0,0,267.89,182.87Z"/><path class="cls-4" d="M162.2,247.28c22.61,16.07,55,16.07,77.62,0-.14,7.39,0,14.8,0,22.21-.64,11.47-5.1,23.33-14.29,30.66-8.73,7-20.58,8.65-31.39,7.24a34.82,34.82,0,0,1-21.82-11.24c-6.42-7.33-9.57-17.07-10.07-26.69C162.24,262.09,162.35,254.69,162.2,247.28Z"/><path class="cls-5" d="M143.57,276.13a111.69,111.69,0,0,1,18.67-6.63c.5,9.62,3.65,19.36,10.07,26.69a34.82,34.82,0,0,0,21.82,11.24c10.81,1.41,22.66-.25,31.39-7.24,9.19-7.33,13.65-19.19,14.29-30.66a106.41,106.41,0,0,1,18.65,6.64c-1.86,18.94-14.28,36.18-31.16,44.72a58.24,58.24,0,0,1-46.07,2.84C161.15,316.54,145.57,297.51,143.57,276.13Z"/><path class="cls-6" d="M97.35,316.58c10.25-18.31,27.49-31.62,46.22-40.45,2,21.38,17.58,40.41,37.66,47.6a58.24,58.24,0,0,0,46.07-2.84c16.88-8.54,29.3-25.78,31.16-44.72,13.77,6.61,26.77,15.32,36.69,27.06,12.9,14.84,20.09,34.11,21.51,53.63a193.47,193.47,0,0,1-231.27,0A94.62,94.62,0,0,1,97.35,316.58Z"/></svg>