<svg id="Layer_1" data-name="Layer 1" xmlns="http://www.w3.org/2000/svg" viewBox="0 0 344 344"><defs><style>.cls-1{fill:#ffa000;}.cls-2{fill:#ffc107;}.cls-3{fill:#f21c00;}.cls-4{fill:#fff;}</style></defs><path class="cls-1" d="M164.9,114.64q71.64-35.72,143.22-71.55c.13,19,0,38,.07,57L307,101q-71.1,35.48-142.16,71c-47.75-24-95.58-47.76-143.33-71.73,0-19.07.06-38.15,0-57.23C69.33,66.76,117.05,90.85,164.9,114.64Z"/><path class="cls-2" d="M21.48,143.33Q93.21,179.06,164.85,215q9.15-4.5,18.24-9.12a71.62,71.62,0,0,0,3.73,55.53c-7.34,3.58-14.61,7.32-21.95,10.92-47.72-23.78-95.34-47.78-143.12-71.46l-.25-.66C21.48,181.24,21.53,162.29,21.48,143.33Z"/><path class="cls-2" d="M272.72,161.1c11.8-5.95,23.66-11.8,35.45-17.77,0,14.33,0,28.65,0,43A73.53,73.53,0,0,0,272.72,161.1Z"/><circle class="cls-3" cx="250.46" cy="229.34" r="71.65"/><path class="cls-4" d="M191.71,210.1h10.23l6.73,18.43c.83,2.44,1.55,5.1,2.38,7.65h.26c.83-2.55,1.53-5.21,2.36-7.65l6.52-18.43h10.23v41.47h-8.54V236.35c0-4,.76-10.07,1.2-14.09h-.25l-3.41,9.82L213.56,248h-5.2l-5.87-15.88-3.31-9.82h-.26c.45,4,1.2,10.05,1.2,14.09v15.22h-8.41Z"/><path class="cls-4" d="M238.22,230.66c0-13.55,7.65-21.32,18.83-21.32s18.84,7.82,18.84,21.32-7.65,21.67-18.84,21.67S238.22,244.2,238.22,230.66Zm28.06,0c0-8.32-3.57-13.23-9.23-13.23s-9.22,4.91-9.22,13.23,3.57,13.58,9.22,13.58S266.28,239,266.28,230.66Z"/><path class="cls-4" d="M283.69,210.1h11.72c12.67,0,20.83,6.3,20.83,20.56s-8.16,20.91-20.3,20.91H283.69ZM294.85,244c7,0,11.78-3.45,11.78-13.36s-4.75-13-11.78-13h-1.78V244Z"/></svg>