<svg id="Layer_1" data-name="Layer 1" xmlns="http://www.w3.org/2000/svg" viewBox="0 0 500 500"><defs><style>.cls-1{fill:#fdf1d6;}.cls-2{fill:#f1667c;}.cls-3{fill:#c7c6c5;}.cls-4{fill:#4084c5;}.cls-5{fill:#faa75d;}.cls-6{fill:#aee1f5;}.cls-7{fill:#94d9f2;}.cls-8{fill:#fecd99;}.cls-9{fill:#7a5649;}.cls-10{fill:#fcb74e;}.cls-11{fill:#79491d;}.cls-12{fill:#4f352f;}.cls-13{fill:#f8981d;}.cls-14{fill:#00589c;}.cls-15{fill:#59c1ef;}</style></defs><path class="cls-1" d="M233.47,24.71A36.55,36.55,0,0,1,263,9.44q53-.07,106,0a36.6,36.6,0,0,1,28.61,13.63,37.1,37.1,0,0,1,7.93,26.14q-89.39,0-178.74,0A37.06,37.06,0,0,1,233.47,24.71Z"/><path class="cls-1" d="M109.84,122.89c10-1.53,20.16-.48,30.22-.73-.5,24.3,0,48.6-.26,72.9-12.81-.74-26.55,2.19-38.51-3.77C88,185,79.49,170,81,155.35,82.13,139.74,94.5,125.86,109.84,122.89Z"/><path class="cls-1" d="M425.66,148.6c9.49,0,19,0,28.46,0,20.78-2,39.3,18.37,37.6,38.72-.7,17.74-16.11,33.29-33.86,34.1-10.73.26-21.46,0-32.2.11Q425.73,185,425.66,148.6Z"/><path class="cls-1" d="M96.73,259.11a29.93,29.93,0,0,1,25.69-17.63c6-.18,12,0,17.94,0,.36,19.88.07,39.77.16,59.65-6-.05-12.06.14-18.09-.08a29.8,29.8,0,0,1-25.7-41.89Z"/><path class="cls-1" d="M425.53,268c12.77.05,25.54-.09,38.31.06,15.4.56,28.56,14.79,27.94,30.19.12,15.14-13,28.79-28.11,29.29-12.72.14-25.43,0-38.14.06Q425.53,297.76,425.53,268Z"/><path class="cls-1" d="M96.45,369.78a26.43,26.43,0,0,1,23.46-15.63c6.86-.09,13.73,0,20.58,0-.57,8.24,1.19,17.46,8.09,22.78,4.64,4.09,11.13,3.82,16.91,3.71q83.64-.06,167.29,0c.24,14.26-12.48,27-26.76,26.54q-92.43.06-184.89,0a26.54,26.54,0,0,1-24.68-37.35Z"/><path class="cls-2" d="M451.13,25.3a9.53,9.53,0,0,1,13.13.1c8.3,8.14,16.49,16.37,24.66,24.62a9.58,9.58,0,0,1,.29,13.37c-3.76,4-7.8,7.75-11.58,11.73l-1.22-1c-12.48-12-24.43-24.58-37-36.46C442.52,33,447.24,29.43,451.13,25.3Z"/><path class="cls-2" d="M329,176.48c1.49-4.61,2.61-9.32,3.71-14,5,5.17,10,10.38,15.2,15.35-2,.52-4,1.93-6.05,1.2-3.95-1.54-7.92.44-11.94.42C329.7,178.69,329.23,177.22,329,176.48Z"/><path class="cls-3" d="M438.89,37.22l.51.49c12.58,11.88,24.53,24.46,37,36.46l1.06,1c-6.42,6.35-12.73,12.81-19.19,19.11-12.74-12.6-25.08-25.63-38.15-37.88C426.13,49.79,432.89,43.87,438.89,37.22Z"/><path class="cls-3" d="M325.72,188.77c.93-4.13,1.67-8.35,3.28-12.29.23.74.7,2.21.92,2.94,4,0,8-2,11.94-.42,2.09.73,4.09-.68,6.05-1.2l4.37,4.16C343.55,184.67,334.62,186.67,325.72,188.77Z"/><path class="cls-4" d="M140.54,70.2c-.12-9.8,7-20.48,17.47-20.92,22.93-.16,45.86,0,68.79-.07q89.37-.08,178.74,0c5.76-.48,11.17,2.28,15,6.45l-.58.61C407,69.51,393.81,82.47,380.74,95.55q-75.71-.18-151.45,0c-23.33-.47-46.67-.24-70-.16-8.92,0-16,7.14-18.65,15.19C140.36,97.12,140.57,83.65,140.54,70.2Z"/><path class="cls-5" d="M419.94,56.26l.19.18c13.07,12.25,25.41,25.28,38.15,37.88-10.83,10.93-21.75,21.78-32.63,32.68-16.14,16.08-32.19,32.27-48.39,48.29q-18.66-19.39-38.14-38c13.81-14,27.79-27.77,41.62-41.73C393.81,82.47,407,69.51,419.94,56.26Z"/><path class="cls-6" d="M140.64,110.56c2.65-8,9.73-15.18,18.65-15.19,23.33-.08,46.67-.31,70,.16,4.53,4.18,10.71,8.35,10.46,15.29,1.15,9.06-6.83,17.6-15.78,17.84-11.26.66-22.54,0-33.8.26-8.71-.37-16.8,7.7-16.36,16.43-.4,6.53,4.1,12.46,9.8,15.21,6.61,2.31,14,0,20.53,3,7.93,3.7,11.68,14.27,7.63,22.09a16.21,16.21,0,0,1-15.51,9.33c-18.65.1-37.29-.09-55.94.12h-.52c.29-24.3-.24-48.6.26-72.9A115.22,115.22,0,0,1,140.64,110.56Z"/><path class="cls-6" d="M255.89,162c9.51-.58,18.13,8.48,17.06,18-.61,9-9.66,16.46-18.65,14.76-8.74-.84-15.65-9.93-14.09-18.59A16.36,16.36,0,0,1,255.89,162Z"/><path class="cls-7" d="M229.29,95.53q75.73-.06,151.45,0c-13.83,14-27.81,27.76-41.62,41.73-2.45,8.3-4.35,16.76-6.41,25.17-1.1,4.71-2.22,9.42-3.71,14-1.61,3.94-2.35,8.16-3.28,12.29,8.9-2.1,17.83-4.1,26.56-6.81,8.23-2.55,16.79-4,25-6.67,16.2-16,32.25-32.21,48.39-48.29,0,7.2,0,14.4,0,21.6q.06,36.45,0,72.91c0,15.49-.18,31-.13,46.45q0,29.81,0,59.6c-.09,11.22.18,22.45-.14,33.68-.38,9.11-6.95,19.26-16.88,19.33-25.24.05-50.49,0-75.73,0q-83.64,0-167.29,0c-5.78.11-12.27.38-16.91-3.71-6.9-5.32-8.66-14.54-8.09-22.78.07-17.68,0-35.37,0-53-.09-19.88.2-39.77-.16-59.65-.1-15.46,0-30.91,0-46.37,18.65-.21,37.29,0,55.94-.12a16.21,16.21,0,0,0,15.51-9.33c4-7.82.3-18.39-7.63-22.09-6.48-2.93-13.92-.65-20.53-3-5.7-2.75-10.2-8.68-9.8-15.21-.44-8.73,7.65-16.8,16.36-16.43,11.26-.26,22.54.4,33.8-.26,8.95-.24,16.93-8.78,15.78-17.84C240,103.88,233.82,99.71,229.29,95.53ZM255.89,162a16.36,16.36,0,0,0-15.68,14.14c-1.56,8.66,5.35,17.75,14.09,18.59,9,1.7,18-5.78,18.65-14.76C274,170.44,265.4,161.38,255.89,162Z"/><path class="cls-8" d="M332.71,162.45c2.06-8.41,4-16.87,6.41-25.17q19.44,18.63,38.14,38c-8.19,2.7-16.75,4.12-25,6.67l-4.37-4.16C342.7,172.83,337.73,167.62,332.71,162.45Z"/><path class="cls-9" d="M145.92,159.12c16.26-7.73,34.39-10.6,52.27-10.67q11.63,0,23.26,0c3.3,5.74,5.78,11.92,9.15,17.62,15.41-.75,30.87,4.63,43,14,13.82,10.55,23.4,25.64,30.39,41.35,13.56,31.47,18.33,65.92,20.09,99.85.23,5.39,1.06,11,.16,16.29-19.84,17.12-39.8,34.12-59.68,51.2l-.77-.32c.25-15.59,0-31.19.14-46.78a59.67,59.67,0,0,0-.62-9.34c1.2-3.52,1-7.28,1-10.94-.16-20.33.22-40.68-.18-61-10.93-14.63-22.77-28.61-34.08-43q-51.37,29.94-102.73,59.91c-.08,14.68,0,29.37,0,44,0,3.64-.23,7.39.94,10.9-1,6.67-.47,13.42-.56,20.14,0,12-.1,24,.09,36l-.75.31c-20-13.36-39.94-27-60-40.3a233,233,0,0,1,1-25.89c-.23-8.5,1.15-16.89,1.76-25.31C73.2,266.63,80,235.76,95,208.55,106.5,187.53,123.94,169.21,145.92,159.12Z"/><path class="cls-10" d="M127.33,277.33q51.38-29.94,102.73-59.91c11.31,14.37,23.15,28.35,34.08,43,.4,20.31,0,40.66.18,61,0,3.66.24,7.42-1,10.94C257.16,342.69,249,352,238.8,358.61c-12.16,7.68-26.2,12.56-40.66,12.85-16,.63-31.9-4.29-45.34-12.87-10.18-6.61-18.41-15.93-24.58-26.32-1.17-3.51-1-7.26-.94-10.9C127.36,306.7,127.25,292,127.33,277.33Zm29.51,10c-5.39,3.22-4.9,12.1.8,14.73,5.56,3.21,13.18-1.85,12.44-8.21C169.91,287.57,161.93,283.59,156.84,287.32Zm69.11-.38c-5.49,2.7-5.94,11.27-.77,14.54,5.06,3.87,13.15-.06,13.39-6.37C239.36,288.66,231.55,283.53,226,286.94Z"/><path class="cls-10" d="M153.08,380.48c8.67,11.92,18.12,24.18,31.56,31a23.74,23.74,0,0,0,21.57.35c13.84-6.63,23.48-19.22,32.31-31.34-2.18,15.64-6.14,31.61-15.47,44.62-6,8.44-15.63,14.65-26.16,14.72-10.36.6-20.41-4.7-26.76-12.7C159.61,413.87,155.37,396.92,153.08,380.48Z"/><path class="cls-11" d="M156.84,287.32c5.09-3.73,13.07.25,13.24,6.52.74,6.36-6.88,11.42-12.44,8.21C151.94,299.42,151.45,290.54,156.84,287.32Z"/><path class="cls-11" d="M226,286.94c5.6-3.41,13.41,1.72,12.62,8.17-.24,6.31-8.33,10.24-13.39,6.37C220,298.21,220.46,289.64,226,286.94Z"/><path class="cls-12" d="M127.66,352.41c.09-6.72-.42-13.47.56-20.14,6.17,10.39,14.4,19.71,24.58,26.32.1,7-.2,14,.13,21-5.57,1.53-11.24,2.88-16.58,5.18-2.88,1.15-5.74,2.37-8.6,3.6C127.56,376.41,127.7,364.41,127.66,352.41Z"/><path class="cls-12" d="M263.36,332.33a59.67,59.67,0,0,1,.62,9.34c-.15,15.59.11,31.19-.14,46.78l-8.62-3.62c-5.3-2.37-11-3.61-16.55-5.19.33-7,0-14,.13-21C249,352,257.16,342.69,263.36,332.33Z"/><path class="cls-13" d="M152.8,358.59c13.44,8.58,29.33,13.5,45.34,12.87,14.46-.29,28.5-5.17,40.66-12.85-.1,7,.2,14-.13,21l-.15.83c-8.83,12.12-18.47,24.71-32.31,31.34a23.74,23.74,0,0,1-21.57-.35c-13.44-6.8-22.89-19.06-31.56-31l-.15-.85C152.6,372.63,152.9,365.61,152.8,358.59Z"/><path class="cls-14" d="M136.35,384.81c5.34-2.3,11-3.65,16.58-5.18l.15.85c2.29,16.44,6.53,33.39,17,46.63,6.35,8,16.4,13.3,26.76,12.7,10.53-.07,20.19-6.28,26.16-14.72,9.33-13,13.29-29,15.47-44.62l.15-.83c5.55,1.58,11.25,2.82,16.55,5.19-2.34,19.81-8.79,39.91-22,55.18a49.43,49.43,0,0,1-74.81,0C145.13,424.7,138.69,404.6,136.35,384.81Z"/><path class="cls-15" d="M127.75,388.41c2.86-1.23,5.72-2.45,8.6-3.6,2.34,19.79,8.78,39.89,22,55.17a49.43,49.43,0,0,0,74.81,0c13.25-15.27,19.7-35.37,22-55.18l8.62,3.62.77.32c21.16,9.4,40.35,24.25,52.56,44.15,10.88,17.39,15.61,38.07,15.61,58.45h-274c-.07-21.8,5.43-43.95,17.85-62.07,12.23-18.2,30.41-31.78,50.33-40.58Z"/></svg>