<svg id="Layer_1" data-name="Layer 1" xmlns="http://www.w3.org/2000/svg" viewBox="0 0 500 500"><defs><style>.cls-1{fill:#f9a01f;}.cls-2{fill:#ffd341;}.cls-3{fill:#fed20d;}.cls-4{fill:#5fcae7;}.cls-5{fill:#45aae0;}.cls-6{fill:#f3742a;}.cls-7{fill:#ecbf1d;}.cls-8{fill:#17499e;}.cls-9{fill:#3a8ccb;}.cls-10{fill:#9ddae5;}.cls-11{fill:#3474bb;}.cls-12{fill:#e2f3f7;}</style></defs><path class="cls-1" d="M113.6,41.58c-.46-13,11.42-24.8,24.42-24.22,11.65-.1,22.22,9.51,23.49,21,1.73,11.4-6.11,22.94-17,26.17-2.25.37-4.51.72-6.78,1C124.94,65.66,113.34,54.45,113.6,41.58Zm22-18.7c-8,1.18-11.57,12.28-5.67,17.88,5.11,5.89,15.92,3.37,17.89-4.17C150.53,29.24,143.16,21.08,135.6,22.88Z"/><path class="cls-1" d="M226.47,35.81c2.82-12.93,17.47-21.64,30.17-17.51,10.6,3,18.25,13.89,17.25,24.89-.57,9.63-7.63,18.21-16.71,21.2,16.33,16.27,32.8,32.44,48.85,49,16.38-16.3,32.61-32.76,49.07-49-9.64-3.18-17-12.63-16.81-22.91-.4-12.77,11-24.38,23.8-24.17,13-.51,24.68,11.22,24.31,24.17.25,12.79-11.13,23.92-23.77,24.08,0,32.23.15,64.47-.09,96.7A16.25,16.25,0,0,1,346.83,178c-32.28-.51-64.58,0-96.88-.28.08-7.5.05-15,.05-22.49,8.91.26,14.09-7.81,19.91-13.18,5.39-5.91,13.44-10.94,13.74-19.8.54-9.16-7.6-14.6-13.15-20.5-6-5.55-11.26-13.75-20.38-13.87-.33-7.34.21-14.72-.3-22.06-2.17-.54-4.35-.93-6.53-1.33C231.26,61.36,223.24,47.91,226.47,35.81ZM247.59,23c-8.19,1.48-11.18,13.11-4.73,18.36,5.64,5.56,16.32,2.06,17.57-5.74C262.34,28.27,254.82,21,247.59,23Zm113.49-.18c-8.2.52-12.47,11.54-6.87,17.51C359,46.52,370,44.53,372.35,37.1,375.36,30,368.65,21.5,361.08,22.78Z"/><path class="cls-1" d="M153.68,178c32.07-.24,64.16-.18,96.24,0,.11,5.22-.15,10.46.26,15.69,32,.42,64.05.09,96.07.15,5.57-.47,11.11,2.86,13.92,7.61,4.7,7.35,2.1,18.23-5.62,22.47-4,2.31-8.75,2.72-13.29,2.48-24.87.09-49.74,0-74.62,0-5.56-.29-11.13,0-16.69-.09V226c0-10.64.33-21.3-.11-31.93-32-.35-64.08-.09-96.12-.11C153.67,188.62,153.73,183.34,153.68,178Z"/><path class="cls-2" d="M135.6,22.88c7.56-1.8,14.93,6.36,12.22,13.71-2,7.54-12.78,10.06-17.89,4.17C124,35.16,127.57,24.06,135.6,22.88Z"/><path class="cls-2" d="M247.59,23c7.23-2,14.75,5.31,12.84,12.62-1.25,7.8-11.93,11.3-17.57,5.74C236.41,36.07,239.4,24.44,247.59,23Z"/><path class="cls-2" d="M361.08,22.78c7.57-1.28,14.28,7.23,11.27,14.32C370,44.53,359,46.52,354.21,40.29,348.61,34.32,352.88,23.3,361.08,22.78Z"/><path class="cls-3" d="M137.69,65.55c2.27-.29,4.53-.64,6.78-1,16.71,16.08,32.85,32.77,49.35,49.06,16.6-16.24,32.68-33.06,49.47-49.09,2.18.4,4.36.79,6.53,1.33.51,7.34,0,14.72.3,22.06-5.83.44-10.84,3.68-14.54,8-4.92,5.06-10,9.9-14.89,15-5.72,5.93-5.4,16.26.52,22,6,6,11.92,12.1,18,18,2.85,2.84,6.84,4,10.74,4.36,0,7.5,0,15-.05,22.49-32.87-.27-65.76,0-98.62-.14-7.93-1-14.11-8.64-13.68-16.6C137.68,129.19,137.59,97.37,137.69,65.55Z"/><path class="cls-3" d="M139.19,216.69c-5.24-10,3.3-23.25,14.52-22.77,32,0,64.1-.24,96.12.11.44,10.63.08,21.29.11,31.93-30,.15-60.05,0-90.07.06C152,227,142.59,224.68,139.19,216.69Z"/><path class="cls-4" d="M235.58,96c3.7-4.37,8.71-7.61,14.54-8-.29,22.46-.05,44.9-.12,67.35-3.9-.41-7.89-1.52-10.74-4.36-6.13-5.86-12.06-12-18-18-5.92-5.7-6.24-16-.52-22C225.54,105.85,230.66,101,235.58,96Z"/><path class="cls-5" d="M250.12,87.9c9.12.12,14.34,8.32,20.38,13.87,5.55,5.9,13.69,11.34,13.15,20.5-.3,8.86-8.35,13.89-13.74,19.8-5.82,5.37-11,13.44-19.91,13.18C250.07,132.8,249.83,110.36,250.12,87.9Z"/><path class="cls-6" d="M159.87,226c30,0,60,.09,90.07-.06v.4c-45.82-1.44-89.7,29.79-105.19,72.59a112.34,112.34,0,1,0,148.12-64.49c-8.36-3.9-17.58-5.09-26.24-8,24.88-.06,49.75.05,74.62,0a144.1,144.1,0,0,1,44.88,63.68c.94,2.68,1.84,5.38,2.63,8.12a147.28,147.28,0,0,1,5.44,32.08c.11,2.67.17,5.36.22,8a148.23,148.23,0,0,1-3.61,32.13,144.47,144.47,0,0,1-281.67,0,147,147,0,0,1-3.58-32.13c0-2.67.09-5.34.2-8a146.73,146.73,0,0,1,5.42-32.1c.78-2.74,1.69-5.44,2.63-8.12a145.29,145.29,0,0,1,16.05-32C138.23,246.1,147.85,234.41,159.87,226Z"/><path class="cls-6" d="M249.92,178c32.12.15,64.26-.23,96.39.21-.06,5.21.05,10.42-.06,15.63-32-.06-64.06.27-96.07-.15C249.77,188.47,250,183.23,249.92,178Z"/><path class="cls-7" d="M9.27,258.11q60.29-.09,120.6,0a145.29,145.29,0,0,0-16.05,32c-20.24.31-40.52,0-60.78.13-7.64-.16-15.58.78-22.87-2.09A32.21,32.21,0,0,1,9.27,258.11Z"/><path class="cls-7" d="M370.11,258.11q60.3-.08,120.62,0c.39,17-14.72,32.26-31.73,32.06-24.29,0-48.58.2-72.86-.08A143.35,143.35,0,0,0,370.11,258.11Z"/><path class="cls-7" d="M41.35,298.22q34.92-.11,69.84,0a146.73,146.73,0,0,0-5.42,32.1c-11.61,0-23.23.21-34.84-.14C54.73,329.28,41,314.44,41.35,298.22Z"/><path class="cls-7" d="M388.77,298.21q34.94,0,69.87,0c.3,16.2-13.34,31-29.54,31.95-11.62.36-23.26.11-34.89.12A147.28,147.28,0,0,0,388.77,298.21Z"/><path class="cls-7" d="M73.45,338.32q16.06,0,32.12,0a147,147,0,0,0,3.58,32.13C90.83,372.53,72.93,356.94,73.45,338.32Z"/><path class="cls-7" d="M394.43,338.32q16.05-.06,32.1,0a32.15,32.15,0,0,1-16.2,27.86c-5.85,3.48-12.78,4.51-19.51,4.27A148.23,148.23,0,0,0,394.43,338.32Z"/><path class="cls-8" d="M208.54,263.33c0-.11,0-.32,0-.43.59,3.87.23,7.8.33,11.7.09,14.09-.2,28.2.14,42.3.49-.58,1-1.14,1.52-1.68q16.34-21.84,32.72-43.64c2.06-2.66,3.92-5.49,6.22-8-12.63,17.12-25.49,34.07-38.25,51.1-.78,1.31-2.64,2.5-2,4.21.25,1.11.5,2.22.8,3.33-.45-1.4-1-2.75-1.45-4.16C208.32,299.86,208.48,281.58,208.54,263.33Z"/><path class="cls-8" d="M291.2,262.93l.85.88a16.29,16.29,0,0,0-.43,3.11c.11,17.08-.07,34.17.09,51.25,6.79,2.86,13.71,5.46,20.52,8.29.92.3,1.9.94,2.89.49,7.28-2.69,14.33-6.05,21.72-8.42-9,12.16-18.26,24.08-27.35,36.15Q284.16,388,258.84,421.32c-2.74,3.5-5.29,7.17-8.16,10.56,5.34-15.9,11.26-31.61,16.81-47.45,7.88-22,15.7-44.1,23.63-66.12l-.49-.88a10.79,10.79,0,0,0,.56-3.07Q291.16,288.64,291.2,262.93Z"/><path class="cls-9" d="M208.55,262.9c13.76.07,27.52,0,41.27,0l-.34.71c-2.3,2.47-4.16,5.3-6.22,8q-16.35,21.84-32.72,43.64c-.52.54-1,1.1-1.52,1.68-.34-14.1-.05-28.21-.14-42.3C208.78,270.7,209.14,266.77,208.55,262.9Z"/><path class="cls-9" d="M250.16,262.9c13.68.07,27.36,0,41,0q-.06,25.71,0,51.43a10.79,10.79,0,0,1-.56,3.07c-.61-.89-1.23-1.78-1.86-2.66l0-.07-.05-.05c-.64-.79-1.25-1.61-1.83-2.44l-.05-.07,0-.05c-.64-.8-1.26-1.62-1.84-2.45l0-.07,0-.05c-.61-.77-1.25-1.52-1.87-2.27l-.22-.27c-.59-.8-1.13-1.64-1.67-2.47l-.05-.06,0-.06c-.62-.8-1.25-1.62-1.84-2.44l0-.06-.05-.06c-.64-.79-1.26-1.61-1.83-2.44l0-.07-.05-.05c-.58-.84-1.22-1.65-1.84-2.44l-.09-.12a20.89,20.89,0,0,0-1.84-2.45l-.08-.12c-.55-.86-1.21-1.64-1.83-2.45l0-.06-.05-.06c-.64-.79-1.26-1.61-1.83-2.44l-.05-.07,0-.05c-.63-.8-1.25-1.62-1.83-2.45l-.05-.07-.05-.05c-.61-.78-1.26-1.52-1.87-2.29l-.18-.24c-.58-.82-1.13-1.66-1.7-2.48l0-.06,0-.06c-.63-.8-1.25-1.61-1.84-2.44l0-.06-.05-.06c-.63-.8-1.26-1.61-1.83-2.45l0-.06-.05-.06a28.73,28.73,0,0,0-1.83-2.44l-.1-.12c-.59-.79-1.22-1.54-1.86-2.29l-.18-.23c-.59-.81-1.14-1.67-1.7-2.49l0-.07,0-.05c-.63-.77-1.27-1.52-1.89-2.29-.05-.06-.14-.18-.19-.23a26.11,26.11,0,0,1-1.66-2.29Z"/><path class="cls-9" d="M289.16,318.67c.65-.13,1.3-.25,2-.36-7.93,22-15.75,44.08-23.63,66.12C261.94,400.27,256,416,250.68,431.88c-.07.27-.21.82-.29,1.08a2.81,2.81,0,0,1-2-1.33l0-.15c.05-.25.14-.75.19-1-11.78-33.24-23.76-66.42-35.6-99.65-1-2.85-2.17-5.64-2.9-8.57-.3-1.11-.55-2.22-.8-3.33l1.53-.21a49.91,49.91,0,0,1,5.58,1.06c10.48,2.38,21,4.63,31.47,7a8.49,8.49,0,0,0,3.85.11C264.18,324.17,276.65,321.3,289.16,318.67Z"/><path class="cls-10" d="M206.69,265.28a20,20,0,0,1,1.85-1.95c-.06,18.25-.22,36.53.08,54.77l-.28.09c-6.34-3.08-13.06-5.29-19.54-8.08-1.31-.42-2.68-1.41-4.1-.79-7.24,2.74-14.31,6-21.66,8.44C177.51,300.2,192.18,282.8,206.69,265.28Z"/><path class="cls-5" d="M249.48,263.62l.42-.6.43.66A26.11,26.11,0,0,0,252,266s.14.17.19.23c.62.77,1.26,1.52,1.89,2.29l.09.12c.56.82,1.11,1.68,1.7,2.49l.18.23c.64.75,1.27,1.5,1.86,2.29l.1.12a28.73,28.73,0,0,1,1.83,2.44.94.94,0,0,1,.09.12c.57.84,1.2,1.65,1.83,2.45a.94.94,0,0,1,.09.12c.59.83,1.21,1.64,1.84,2.44l.09.12c.57.82,1.12,1.66,1.7,2.48l.18.24c.61.77,1.26,1.51,1.87,2.29l.1.12c.58.83,1.2,1.65,1.83,2.45,0,0,.06.09.09.12.57.83,1.19,1.65,1.83,2.44l.09.12c.62.81,1.28,1.59,1.83,2.45l.08.12a20.89,20.89,0,0,1,1.84,2.45l.09.12c.62.79,1.26,1.6,1.84,2.44a.54.54,0,0,1,.09.12c.57.83,1.19,1.65,1.83,2.44a.47.47,0,0,1,.09.12c.59.82,1.22,1.64,1.84,2.44l.09.12c.54.83,1.08,1.67,1.67,2.47l.22.27c.62.75,1.26,1.5,1.87,2.27a.83.83,0,0,1,.08.12c.58.83,1.2,1.65,1.84,2.45l.09.12c.58.83,1.19,1.65,1.83,2.44l.09.12c.63.88,1.25,1.77,1.86,2.66l.49.88c-.66.11-1.31.23-2,.36l.68-.77c-11-2.87-22.23-5-33.32-7.58-2.75-.53-5.54-1.7-8.38-1q-18.87,4.24-37.76,8.38c.1.26.32.77.42,1l-1.53.21c-.68-1.71,1.18-2.9,2-4.21C224,297.69,236.85,280.74,249.48,263.62Z"/><path class="cls-5" d="M311.15,310.16c1.32-.42,2.7-1.42,4.13-.84,7.22,2.62,14.18,6,21.51,8.29l.39.82-.34.1c-7.39,2.37-14.44,5.73-21.72,8.42-1,.45-2-.19-2.89-.49-6.81-2.83-13.73-5.43-20.52-8.29C298,315.15,304.7,312.91,311.15,310.16Z"/><path class="cls-11" d="M291.62,266.92a16.29,16.29,0,0,1,.43-3.11c14.9,17.95,30,35.76,44.74,53.8-7.33-2.3-14.29-5.67-21.51-8.29-1.43-.58-2.81.42-4.13.84-6.45,2.75-13.11,5-19.44,8C291.55,301.09,291.73,284,291.62,266.92Z"/><path class="cls-11" d="M252,266s.14.17.19.23S252,266,252,266Z"/><path class="cls-11" d="M254.07,268.49l0,.05,0,.07Z"/><path class="cls-11" d="M255.86,271.1l.18.23Z"/><path class="cls-11" d="M257.9,273.62l.1.12Z"/><path class="cls-11" d="M259.83,276.18l.05.06,0,.06A.94.94,0,0,0,259.83,276.18Z"/><path class="cls-11" d="M261.75,278.75l.05.06,0,.06A.94.94,0,0,0,261.75,278.75Z"/><path class="cls-11" d="M263.68,281.31l0,.06,0,.06Z"/><path class="cls-11" d="M265.47,283.91l.18.24Z"/><path class="cls-11" d="M267.52,286.44l.05.05.05.07Z"/><path class="cls-11" d="M269.45,289l0,.05.05.07S269.47,289,269.45,289Z"/><path class="cls-11" d="M271.37,291.57l.05.06,0,.06Z"/><path class="cls-11" d="M273.29,294.14l.08.12Z"/><path class="cls-11" d="M275.21,296.71l.09.12Z"/><path class="cls-11" d="M277.14,299.27l.05.05,0,.07A.54.54,0,0,0,277.14,299.27Z"/><path class="cls-11" d="M279.06,301.83l.05.06,0,.06A.47.47,0,0,0,279.06,301.83Z"/><path class="cls-11" d="M281,304.39l0,.06.05.06Z"/><path class="cls-11" d="M282.75,307l.22.27Z"/><path class="cls-11" d="M284.84,309.52l0,.05,0,.07A.83.83,0,0,0,284.84,309.52Z"/><path class="cls-11" d="M286.76,312.09l0,.05.05.07Z"/><path class="cls-11" d="M288.68,314.65l.05.05,0,.07Z"/><path class="cls-12" d="M163,317.76c7.35-2.47,14.42-5.7,21.66-8.44,1.42-.62,2.79.37,4.1.79,6.48,2.79,13.2,5,19.54,8.08-7.5,3.09-15.06,6-22.57,9.08-7.63-2.92-15.14-6.15-22.79-9-.08-.1-.23-.3-.31-.39Z"/><path class="cls-4" d="M210.38,317.7q18.88-4.15,37.76-8.38c2.84-.7,5.63.47,8.38,1,11.09,2.61,22.31,4.71,33.32,7.58l-.68.77c-12.51,2.63-25,5.5-37.46,8.25a8.49,8.49,0,0,1-3.85-.11c-10.47-2.4-21-4.65-31.47-7a49.91,49.91,0,0,0-5.58-1.06C210.7,318.47,210.48,318,210.38,317.7Z"/><path class="cls-4" d="M208.34,318.19l.28-.09c.42,1.41,1,2.76,1.45,4.16.73,2.93,1.91,5.72,2.9,8.57,11.84,33.23,23.82,66.41,35.6,99.65,0,.25-.14.75-.19,1q-40.92-54-81.73-108.16c-1.23-1.68-2.6-3.26-3.67-5.05,7.65,2.85,15.16,6.08,22.79,9C193.28,324.22,200.84,321.28,208.34,318.19Z"/></svg>