<svg id="Layer_1" data-name="Layer 1" xmlns="http://www.w3.org/2000/svg" viewBox="0 0 500 500"><defs><style>.cls-1{fill:#94d9f2;}.cls-2{fill:#e6f5f8;}.cls-3{fill:#fdbb51;}.cls-4{fill:#ffcd7e;}.cls-5{fill:#ffd085;}.cls-6{fill:#fcb22e;}.cls-7{fill:#d3e6ed;}.cls-8{fill:#c1d8dd;}.cls-9{fill:#f0575e;}.cls-10{fill:#f4878e;}.cls-11{fill:#ef4548;}</style></defs><path class="cls-1" d="M16.25,80.68c9-13.07,26.33-17.23,41.32-14.76C72.93,71,86.8,83.58,89.7,100c3.08,20.51,2.45,41.32,2.19,62L81,162c-.72-16.28.77-32.64-.76-48.89C77.83,95.19,63.33,79.43,45.39,76.36,35.47,74.06,25.5,77.34,16.25,80.68Z"/><path class="cls-1" d="M159.73,178.77c10.12.45,20.3-.64,30.36.54,5.32.82,7.36,7.81,5.06,12.12-1.85,3-5.43,4.09-8.75,4.15-8.92.4-17.81-.15-26.73.19A15.58,15.58,0,0,1,159.73,178.77Z"/><path class="cls-1" d="M233.16,178.71c16.42.77,32.91-.6,49.29.64,8.2,1.1,8,14.93-.09,16-16.4.94-32.87,0-49.29.53-1.3-3-3.51-5.94-3.52-9.33A59.11,59.11,0,0,1,233.16,178.71Z"/><path class="cls-1" d="M325.6,178.73c11.39.72,22.83-.47,34.17.64,7.85,1,8,15.12,0,15.78-11.35,1.17-22.77.24-34.16.66-1.34-3.06-3.31-6-3.5-9.39A60.08,60.08,0,0,1,325.6,178.73Z"/><path class="cls-1" d="M138.37,214.37c8.3-2.48,17-.83,25.5-1.22,13.22-.64,26.34,1.9,39.55,1.13,5.16.28,12-1.28,15.49,3.66,3.25,3.9.72,10.68-4.2,11.72-5.63,1.06-11.38.57-17.08.57-10.7-.32-21.28,2.14-32,1.52-9.62-.64-19.63,1.59-28.88-1.81,13.82-.15,27.63.36,41.43-.2-.83-5.06-.81-10.22,1.43-14.93C165.87,214.86,152.13,214.94,138.37,214.37Z"/><path class="cls-1" d="M242.4,214.22c9.46-2,19.21-1.39,28.82-1.07,24.41,2.41,49,.19,73.44,1.45,7.27.09,9.48,10.84,3.41,14.5-7.16,2.18-14.84.92-22.21,1.13-18.22.18-36.51-.93-54.64,1.32-10.23.09-20.75,1.39-30.74-1.4,10.57-.09,21.17-.15,31.74-.47a29.79,29.79,0,0,1,1.58-15C263.32,214.92,252.86,214.64,242.4,214.22Z"/><path class="cls-1" d="M152.09,248.62c5.15.36,10.62-.37,15.46,1.74,6,2.49,5.33,12.34-.57,14.51-4.82,1.15-9.85.85-14.79,1.11-1.32-3.16-3.92-6.12-3.73-9.69A70.54,70.54,0,0,1,152.09,248.62Z"/><path class="cls-1" d="M256.14,248.89c25.79.09,51.59.13,77.4,0,3.56.19,7.59-.17,10.55,2.2,4.15,3,3.71,10.43-.68,13-2.92,1.86-6.63,1.34-9.93,1.6-25.24-.06-50.5-.28-75.74,0-1.81-2.55-4.05-4.92-5-7.94A49.38,49.38,0,0,1,256.14,248.89Z"/><path class="cls-1" d="M169.19,284.17c59.19.25,118.37.06,177.56.15a8.14,8.14,0,0,1,9.27,9.5c0,5.7-6.56,7.34-11.14,7.15-58.5,0-117-.19-175.5.09C165.8,295.73,166,289.62,169.19,284.17Z"/><path class="cls-1" d="M180.56,320.12c11.19.73,22.5-.68,33.64.83,7.6,1.69,7.88,14,0,15.47-11.19,1.53-22.56.13-33.81.78-1.3-3.1-3.56-6-3.47-9.5A51.44,51.44,0,0,1,180.56,320.12Z"/><path class="cls-1" d="M274.59,320.21c26.54.32,53.08-.19,79.6.32-3.2,5.24-4.35,11.37-.73,16.74-26.29-.51-52.61-.24-78.92-.09-1.25-3.06-3.58-5.94-3.43-9.35A58.83,58.83,0,0,1,274.59,320.21Z"/><path class="cls-1" d="M165.84,405c3.46-7.84,13.15-8.21,20.52-8.18,58.6.51,117.21-.56,175.79.47-.34,3.77-.43,7.58-.47,11.37-59.08,0-118.15.06-177.2-.08-2.59.19-5.34.12-7.64,1.46-2.9,7.33-3.8,15.55-8.44,22.14-6.05,9.24-16.59,13.82-26.13,18.57a61.68,61.68,0,0,1-31-5.94l-3-2.3c-.86-.86-2.58-2.58-3.43-3.45,15.8-1.77,34.16,3.25,47.56-7.63C160.92,425.13,162.2,414.16,165.84,405Z"/><path class="cls-2" d="M57.57,65.92c19.58-.7,39.2-.12,58.8-.34q110.35.09,220.73,0c10.95.13,22.43-1.08,32.78,3.3,15.3,6.18,26.37,21.62,27,38.15.64,14.28-.32,28.59.53,42.88a276.45,276.45,0,0,0-21.81,38.92c-6.5,12.93-.23,27.22,1.37,40.53-3.07-4.11-5.9-8.47-9.76-11.9-4.32.12-5.28,4.6-6,8-4.19,21.18-.79,43.18,6.58,63.27-4.17,10.28-8,20.68-13,30.62-.13.3-.41.88-.57,1.18-26.52-.51-53.06,0-79.6-.32-11,.45-22.09-.86-33,.79-7.52,1.42-7.62,14-.06,15.4,10.92,1.68,22,.36,33,.78,26.31-.15,52.63-.42,78.92.09,3.15-.17,6.43,0,9.46-1,4.19-4.6,5.51-11,7.79-16.59,3.09-8.69,6.88-17.12,10.53-25.58A152.25,152.25,0,0,0,397,285.72c.08,17.09,0,34.21,0,51.32-5.71,0-12,2.44-13.89,8.28-3.17,7.35,2.45,16.76,10.53,17.06,20.62.56,41.28-.25,61.9.24h.06c-20.85.21-41.71-.05-62.56.23-1.26,4.64-2.17,9.69-5.5,13.4-5,5.69-13,6.82-18.76,11.46-3,2.56-4.94,6.13-6.69,9.61-58.58-1-117.19,0-175.79-.47-7.37,0-17.06.34-20.52,8.18-3.64,9.13-4.92,20.1-13.35,26.43-13.4,10.88-31.76,5.86-47.56,7.63-9.08-8.84-14.53-21.18-14.08-33.92q0-120.93,0-241.84c-19-.56-38-.3-56.94-.34-8.41-.28-16.93.81-25.26-.58-3.3-1.28-2.49-5.22-2.81-8,0-15.06,0-30.14,0-45.2,0-10.26,3-21.12,10.37-28.52,9.25-3.34,19.22-6.62,29.14-4.32,17.94,3.07,32.44,18.83,34.85,36.74,1.53,16.25,0,32.61.76,48.89l10.89,0c.26-20.65.89-41.46-2.19-62C86.8,83.58,72.93,71,57.57,65.92ZM136.75,180c-5.86,3.32-5.16,12.65,1.21,14.95,7.14,1.32,14.47.6,21.71.79,8.92-.34,17.81.21,26.73-.19,3.32-.06,6.9-1.19,8.75-4.15,2.3-4.31.26-11.3-5.06-12.12-10.06-1.18-20.24-.09-30.36-.54C152.09,179.05,144.18,177.9,136.75,180Zm78.34-.51c-6.83,1.64-7.6,12.39-1.15,15.12,6.18,1.79,12.78.85,19.13,1.19,16.42-.53,32.89.41,49.29-.53,8.07-1,8.29-14.85.09-16-16.38-1.24-32.87.13-49.29-.64C227.13,178.92,221,178.43,215.09,179.52Zm92.47.1c-6.78,2.3-6.44,13.12.15,15.41,5.86,1.12,11.92.61,17.85.78,11.39-.42,22.81.51,34.16-.66,8.08-.66,7.9-14.8,0-15.78-11.34-1.11-22.78.08-34.17-.64C319.59,178.86,313.46,178.33,307.56,179.62ZM138.37,214.37c-7.16,2.06-6.73,10.62-3,15.59l1.38,0c9.25,3.4,19.26,1.17,28.88,1.81,10.7.62,21.28-1.84,32-1.52,5.7,0,11.45.49,17.08-.57,4.92-1,7.45-7.82,4.2-11.72-3.5-4.94-10.33-3.38-15.49-3.66-13.21.77-26.33-1.77-39.55-1.13C155.39,213.54,146.67,211.89,138.37,214.37Zm104-.15c-7.48,1.3-8.8,12.75-1.92,15.93,10,2.79,20.51,1.49,30.74,1.4,18.13-2.25,36.42-1.14,54.64-1.32,7.37-.21,15.05,1.05,22.21-1.13,6.07-3.66,3.86-14.41-3.41-14.5-24.45-1.26-49,1-73.44-1.45C261.61,212.83,251.86,212.21,242.4,214.22ZM138.11,249.53c-5.09,1.73-7.73,9.2-3.56,13.23,4.59,4.5,11.83,2.53,17.64,3.22,4.94-.26,10,0,14.79-1.11,5.9-2.17,6.55-12,.57-14.51-4.84-2.11-10.31-1.38-15.46-1.74C147.44,248.87,142.71,248.68,138.11,249.53Zm48.33,12.21c2.64,4.56,8.59,3.79,13.06,4.09,19.41-.19,38.83-.07,58.24-.09,25.24-.32,50.5-.1,75.74,0,3.3-.26,7,.26,9.93-1.6,4.39-2.6,4.83-10,.68-13-3-2.37-7-2-10.55-2.2-25.81.15-51.61.11-77.4,0-20.75.26-41.5-.08-62.24.2C187.68,248.49,182.84,256.6,186.44,261.74Zm-52.65,26.64c-3.45,5.18,1.15,12.76,7.26,12.44,9.42.52,18.89-.19,28.33.24,58.49-.28,117-.06,175.5-.09,4.58.19,11.18-1.45,11.14-7.15a8.14,8.14,0,0,0-9.27-9.5c-59.19-.09-118.37.1-177.56-.15-9.35.15-18.72-.41-28.05.23C138.3,284.55,134.85,285.3,133.79,288.38ZM138,321c-7.64,2.54-6.64,14.62,1.28,15.74,13.66,1,27.4-.12,41.09.51,11.25-.65,22.62.75,33.81-.78,7.92-1.45,7.64-13.78,0-15.47-11.14-1.51-22.45-.1-33.64-.83C166.38,320.87,152.09,319.36,138,321Z"/><path class="cls-2" d="M176.84,410.07c2.3-1.34,5-1.27,7.64-1.46,59.05.14,118.12.06,177.2.08.13,8.24-.42,16.49.37,24.71,1.12,8.45,8.49,14.29,16,17.14-78.58.54-157.19.09-235.79.24,9.54-4.75,20.08-9.33,26.13-18.57C173,425.62,173.94,417.4,176.84,410.07Z"/><path class="cls-3" d="M445.31,100.49c4.88-2.7,12.31-.61,13.86,5.12,2.54,11,2.16,22.38,1.79,33.56-.47,6.29-.55,13.19-4.73,18.34-3.45,4.82-7,9.55-10.47,14.4,3.68-2.49,7.32-5,11.05-7.43,2.79,8.07.4,16.55-1.53,24.52-2.64,9.84-5.67,19.61-9.18,29.18-4.54,14-19.47,19.59-30.16,28,5.58-.83,11.35-3,17-1.41,1.15,3.65-1,6.95-2.91,9.89-8.4,12.75-20.16,23-33,31.05a152.25,152.25,0,0,1-15.78,8.33c17.12-42.28,35-84.24,52.23-126.46,1.93-4.13,2.61-10.84-2.86-12.48-4.88-1.81-8.88,2.53-10.35,6.75q-25.92,63.55-52.49,126.87c-7.37-20.09-10.77-42.09-6.58-63.27.73-3.38,1.69-7.86,6-8,3.86,3.43,6.69,7.79,9.76,11.9-1.6-13.31-7.87-27.6-1.37-40.53a276.45,276.45,0,0,1,21.81-38.92c2.26-3.05,5.6-4.73,9.14-5.86.53,4.73,1,9.48,1.41,14.25,1.83-8.15,2.32-16.63,4.92-24.58,3.83-7.86,10.82-13.57,16.72-19.87C434.53,109.1,439.45,104.14,445.31,100.49Zm-5.62,13.17c-2.39,1.25-2.56,4.11-2.63,6.49a5.37,5.37,0,0,0,8-3.66C445.65,113.23,442,111.7,439.69,113.66Zm-7.37,9.47c-5.08,4.31-10,9.76-10.85,16.66,7.12-.76,11-7.37,14.74-12.65C438.39,124.82,434.66,121,432.32,123.13Z"/><path class="cls-4" d="M439.69,113.66c2.27-2,6-.43,5.4,2.83a5.37,5.37,0,0,1-8,3.66C437.13,117.77,437.3,114.91,439.69,113.66Z"/><path class="cls-5" d="M432.32,123.13c2.34-2.15,6.07,1.69,3.89,4-3.77,5.28-7.62,11.89-14.74,12.65C422.33,132.89,427.24,127.44,432.32,123.13Z"/><path class="cls-6" d="M420.26,161.86c1.47-4.22,5.47-8.56,10.35-6.75,5.47,1.64,4.79,8.35,2.86,12.48-17.26,42.22-35.11,84.18-52.23,126.46-3.65,8.46-7.44,16.89-10.53,25.58q-8-.09-15.95-.28c5-9.94,8.84-20.34,13-30.62Q394.2,225.37,420.26,161.86Z"/><path class="cls-7" d="M136.75,180c7.43-2.13,15.34-1,23-1.26a15.58,15.58,0,0,0-.06,17c-7.24-.19-14.57.53-21.71-.79C131.59,192.68,130.89,183.35,136.75,180Z"/><path class="cls-7" d="M215.09,179.52c5.95-1.09,12-.6,18.07-.81a59.11,59.11,0,0,0-3.61,7.79c0,3.39,2.22,6.29,3.52,9.33-6.35-.34-12.95.6-19.13-1.19C207.49,191.91,208.26,181.16,215.09,179.52Z"/><path class="cls-7" d="M307.56,179.62c5.9-1.29,12-.76,18-.89a60.08,60.08,0,0,0-3.54,7.69c.19,3.39,2.16,6.33,3.5,9.39-5.93-.17-12,.34-17.85-.78C301.12,192.74,300.78,181.92,307.56,179.62Z"/><path class="cls-7" d="M135.39,230c-3.75-5-4.18-13.53,3-15.59,13.76.57,27.5.49,41.26.44-2.24,4.71-2.26,9.87-1.43,14.93-13.8.56-27.61,0-41.43.2Z"/><path class="cls-7" d="M240.48,230.15c-6.88-3.18-5.56-14.63,1.92-15.93,10.46.42,20.92.7,31.4.49a29.79,29.79,0,0,0-1.58,15C261.65,230,251.05,230.06,240.48,230.15Z"/><path class="cls-7" d="M138.11,249.53c4.6-.85,9.33-.66,14-.91a70.54,70.54,0,0,0-3.63,7.67c-.19,3.57,2.41,6.53,3.73,9.69-5.81-.69-13.05,1.28-17.64-3.22C130.38,258.73,133,251.26,138.11,249.53Z"/><path class="cls-7" d="M186.44,261.74c-3.6-5.14,1.24-13.25,7.46-12.65,20.74-.28,41.49.06,62.24-.2a49.38,49.38,0,0,0-3.43,8.91c1,3,3.22,5.39,5,7.94-19.41,0-38.83-.1-58.24.09C195,265.53,189.08,266.3,186.44,261.74Z"/><path class="cls-7" d="M133.79,288.38c1.06-3.08,4.51-3.83,7.35-4,9.33-.64,18.7-.08,28.05-.23-3.24,5.45-3.39,11.56.19,16.89-9.44-.43-18.91.28-28.33-.24C134.94,301.14,130.34,293.56,133.79,288.38Z"/><path class="cls-7" d="M138,321c14.11-1.59,28.4-.08,42.58-.83a51.44,51.44,0,0,0-3.68,7.58c-.09,3.46,2.17,6.4,3.47,9.5-13.69-.63-27.43.45-41.09-.51C131.34,335.57,130.34,323.49,138,321Z"/><path class="cls-7" d="M241.59,321c10.91-1.65,22-.34,33-.79a58.83,58.83,0,0,0-3.48,7.62c-.15,3.41,2.18,6.29,3.43,9.35-11-.42-22.09.9-33-.78C234,335,234.07,322.42,241.59,321Z"/><path class="cls-8" d="M354.19,320.53c.16-.3.44-.88.57-1.18q8,.19,15.95.28c-2.28,5.63-3.6,12-7.79,16.59-3,1-6.31.88-9.46,1C349.84,331.9,351,325.77,354.19,320.53Z"/><path class="cls-9" d="M383.17,345.32c1.92-5.84,8.18-8.29,13.89-8.28,18.43.27,36.89,0,55.32.14,4.75-.36,9.1,1.77,12.4,5.09,5.39,7.69.34,19.54-9.18,20.35-20.62-.49-41.28.32-61.9-.24C385.62,362.08,380,352.67,383.17,345.32Zm9.33-1.53c-3.53-.11-3.38,5.47,0,5.71a174.54,174.54,0,0,0,29,0,4.25,4.25,0,0,0,0-5.86C411.87,343.08,402.09,342.74,392.5,343.79ZM426,344.9c-1.15,7,7.86,5,11.91,3.79C437.3,342.6,430.19,341.81,426,344.9Z"/><path class="cls-9" d="M458.69,372.07h0c3,5.93,8.58,9.61,14.69,11.83,7.27,2.64,13.08,9.28,13.85,17.1.83,11.1.11,22.26.21,33.38l-.4,0c-27.33-1.49-54.74.29-82.07-.9-17.92-.79-32-21.26-24.71-38.08,2.88-8.4,12.05-10.82,18.76-15.21,4.86-2.92,9.14-7.84,15.32-7.5C429.14,372.22,443.94,373.33,458.69,372.07Z"/><path class="cls-10" d="M392.5,343.79c9.59-1.05,19.37-.71,29-.11a4.25,4.25,0,0,1,0,5.86,174.54,174.54,0,0,1-29,0C389.12,349.26,389,343.68,392.5,343.79Z"/><path class="cls-10" d="M426,344.9c4.18-3.09,11.29-2.3,11.91,3.79C433.87,349.9,424.86,351.9,426,344.9Z"/><path class="cls-11" d="M393.1,362.85c20.85-.28,41.71,0,62.56-.23,2,2.7,2.09,6.32,3,9.45-14.75,1.26-29.55.15-44.31.6-6.18-.34-10.46,4.58-15.32,7.5-6.71,4.39-15.88,6.81-18.76,15.21C373,412.2,387.09,432.67,405,433.46c27.33,1.19,54.74-.59,82.07.9-2.22,8.9-10.35,16.21-19.75,16-28.3.24-56.61.07-84.9.13l-4.37,0c-7.52-2.85-14.89-8.69-16-17.14-.79-8.22-.24-16.47-.37-24.71,0-3.79.13-7.6.47-11.37,1.75-3.48,3.66-7.05,6.69-9.61,5.75-4.64,13.78-5.77,18.76-11.46C390.93,372.54,391.84,367.49,393.1,362.85Z"/></svg>